<svg xmlns="http://www.w3.org/2000/svg" id="Layer_1" data-name="Layer 1" viewBox="0 0 464.55 537.28"><defs><style>      .cls-1 {        fill: #38ce74;      }    </style></defs><g><path class="cls-1" d="m176.07,461.77H33.84c-17.35,0-31.47-14.12-31.47-31.47v-142.23c0-17.35,14.12-31.47,31.47-31.47h142.23c17.35,0,31.47,14.12,31.47,31.47v142.23c0,17.35-14.12,31.47-31.47,31.47ZM33.84,286.88c-.66,0-1.2.54-1.2,1.2v142.23c0,.66.54,1.2,1.2,1.2h142.23c.66,0,1.2-.54,1.2-1.2v-142.23c0-.66-.54-1.2-1.2-1.2H33.84Z"></path><path class="cls-1" d="m431.63,461.77h-142.23c-17.35,0-31.47-14.12-31.47-31.47v-142.23c0-17.35,14.12-31.47,31.47-31.47h142.23c17.35,0,31.47,14.12,31.47,31.47v142.23c0,17.35-14.12,31.47-31.47,31.47Zm-142.23-174.9c-.66,0-1.2.54-1.2,1.2v142.23c0,.66.54,1.2,1.2,1.2h142.23c.66,0,1.2-.54,1.2-1.2v-142.23c0-.66-.54-1.2-1.2-1.2h-142.23Z"></path></g><g id="b6QhWa"><g><path d="m.91,1.99C1.62.52,2.72,0,4.4,0c25.47.06,50.95,0,76.42.1,8.06.03,15.99,1.31,23.59,4.14,17.9,6.66,27.59,20.03,30.8,38.4.96,5.48,1.4,11.12,1.43,16.69.15,25.96.07,61.86.06,87.82,0,9.56-1.2,18.95-4.99,27.81-7.65,17.84-21.59,27.44-40.47,30.19-4.95.72-10.01.97-15.03.99-23.77.1-47.54.03-71.31.08-1.76,0-3.18-.25-3.99-1.98V1.99Zm39.5,166.6c11.08,0,22.02.86,32.75-.23,11.84-1.21,20.12-8.2,23.33-20.08.9-3.32,1.2-6.88,1.22-10.34.11-19.14.07-48.23.04-67.38,0-2.83-.15-5.67-.41-8.5-1.32-14.29-10.63-23.73-24.88-24.51-10.35-.56-20.75-.3-31.13-.4-.29,0-.58.18-.9.29v131.13Z"></path><path d="m219,98.26v2.65c0,30.26,0,70.46,0,100.71,0,4.34-.22,4.56-4.52,4.56-10.3,0-20.6,0-30.91,0-2.84,0-3.43-.58-3.52-3.36-.02-.65,0-1.3,0-1.95,0-61.9,0-133.73,0-195.63,0-.81,0-1.62.02-2.43.07-1.84.89-2.8,2.87-2.79,11.28.04,22.55.05,33.83,0,2.08-.01,2.78,1.3,3.45,2.84,5.08,11.74,10.15,23.49,15.24,35.23,8.11,18.73,17.55,45.54,25.67,64.26.31.71.66,1.4,1.41,2.03v-2.53c0-29.77-1.32-67.63-1.32-97.4,0-4.06.35-4.4,4.46-4.4,10.46,0,20.93,0,31.39,0,3.18,0,3.66.48,3.66,3.68,0,62.95.01,135.79,0,198.74,0,3.18-.5,3.67-3.68,3.67-10.22.01-20.44-.07-30.66.05-2.52.03-3.75-.96-4.74-3.19-13.58-30.75-27.23-71.35-40.87-102.07-.42-.94-.86-1.87-1.3-2.81-.16.05-.33.09-.49.14Z"></path><path d="m437.9,135.5c3.82,8.4,21.71,56.71,25.76,65.64.27.59.57,1.17.73,1.79.53,2.02-.28,3.21-2.38,3.22-12.01.04-24.01,0-36.02.03-1.9,0-2.36-1.42-2.97-2.74-7.13-15.53-15.76-40.98-22.79-56.56-.94-2.09-2-2.88-4.29-2.76-3.95.2-7.91.06-12.19.06,0,1.16,0,2.11,0,3.06,0,14.93,0,39.79,0,54.72,0,3.87-.34,4.21-4.13,4.21-10.46,0-20.93,0-31.39,0-2.84,0-3.34-.51-3.42-3.4-.02-.65,0-1.3,0-1.95,0-61.82,0-133.57,0-195.39,0-.89,0-1.79.02-2.68.05-1.83.83-2.76,2.85-2.76,21.58.06,43.16-.05,64.73.13,8.25.07,16.28,1.78,23.74,5.48,15.26,7.56,22.61,20.5,24.79,36.86.44,3.29.64,6.63.64,9.94.02,14.76-.07,26.68-.52,41.43-.37,12-3.61,23.29-12.09,32.31-3.17,3.38-7.11,6.04-11.08,9.34Zm-54.01-30.33c5.36,0,10.47.06,15.57-.03,2.51-.04,5.03-.2,7.51-.56,8.36-1.2,13.15-5.33,14.59-13.68,2.1-12.13,1.64-24.41.44-36.59-.84-8.51-5.57-12.87-14.04-13.88-4.82-.57-9.7-.69-14.55-.88-3.13-.13-6.26-.02-9.53-.02v65.64Z"></path></g></g><g><path d="m13.23,529.88H4.91l-.23.56c-.53,1.19-.95,2.37-1.24,3.52-.3,1.15-.45,2.06-.45,2.72H0c.93-1.79,2.09-4.23,3.48-7.33l6.53-14.86h1.09l9.72,22.19h-4.71l-2.89-6.8Zm-.63-1.46l-3.48-8.26-3.58,8.26h7.06Z"></path><path d="m45.34,536.68h-5.27l-3.58-5.97c-.6-1-1.09-1.74-1.48-2.24-.39-.5-.81-.88-1.26-1.14-.45-.27-1.01-.4-1.67-.4h-.73v9.75h-4.38v-22.05h6.87c6.17,0,9.25,1.92,9.25,5.77,0,1.79-.64,3.2-1.91,4.21-1.27,1.02-3.06,1.64-5.36,1.86,1.26.24,2.34.72,3.23,1.44.9.72,1.92,1.97,3.07,3.76l3.22,5.01Zm-12.01-11.18c3.36,0,5.04-1.69,5.04-5.07,0-1.55-.36-2.66-1.09-3.35-.73-.69-1.95-1.03-3.65-1.03h-2.29v9.45h1.99Z"></path><path d="m67.16,517.45c-1.86-.95-4.05-1.43-6.57-1.43h-.53v20.66h-4.38v-20.66h-.56c-2.5,0-4.68.48-6.53,1.43v-2.82h18.57v2.82Z"></path><path d="m84.6,519.64c1-1.77,2.36-3.15,4.1-4.15,1.74-1,3.69-1.49,5.85-1.49s4.12.5,5.85,1.49,3.1,2.38,4.1,4.15c.99,1.77,1.49,3.77,1.49,6s-.5,4.23-1.49,6c-1,1.77-2.36,3.15-4.1,4.15s-3.69,1.49-5.85,1.49-4.12-.5-5.85-1.49c-1.74-1-3.1-2.38-4.1-4.15-.99-1.77-1.49-3.77-1.49-6s.5-4.23,1.49-6Zm4.16,11.44c.54,1.57,1.31,2.79,2.32,3.66,1.01.87,2.16,1.31,3.47,1.31s2.46-.44,3.47-1.31c1.01-.87,1.78-2.09,2.32-3.66.54-1.57.81-3.38.81-5.44s-.27-3.87-.81-5.44c-.54-1.57-1.32-2.79-2.32-3.66-1.01-.87-2.16-1.31-3.47-1.31s-2.46.44-3.47,1.31c-1.01.87-1.78,2.09-2.32,3.66-.54,1.57-.81,3.38-.81,5.44s.27,3.87.81,5.44Z"></path><path d="m117.84,515.99v9.32h8.26l-.76,1.46h-7.5v9.92h-4.38v-22.05h13.46v2.62c-.86-.4-1.89-.71-3.08-.93-1.19-.22-2.7-.33-4.51-.33h-1.49Z"></path><path d="m160.22,526.98c1.17.98,1.76,2.25,1.76,3.8,0,1.81-.72,3.25-2.17,4.31-1.45,1.06-3.43,1.59-5.95,1.59h-8.89v-22.05h7.36c5.86,0,8.79,1.7,8.79,5.11,0,1.37-.5,2.55-1.51,3.53-1.01.98-2.38,1.64-4.13,1.97,1.99.18,3.57.76,4.74,1.74Zm-7.96-10.93h-2.92v8.66h2.12c1.77,0,3.04-.42,3.81-1.24s1.16-2.02,1.16-3.56c0-2.57-1.39-3.85-4.18-3.85Zm3.9,17.98c.76-.82,1.14-1.93,1.14-3.35,0-3.03-1.9-4.54-5.7-4.54h-2.26v9.12h3.42c1.5,0,2.64-.41,3.4-1.23Z"></path><path d="m184.58,534.94c-1.51,1.56-3.58,2.34-6.19,2.34-2.94,0-5.21-.79-6.8-2.37-1.59-1.58-2.39-3.91-2.39-6.98v-13.3h4.38v13.86c0,4.6,1.89,6.9,5.67,6.9,1.83,0,3.3-.58,4.39-1.74,1.09-1.16,1.64-2.94,1.64-5.32v-2.89c0-4.49-.18-8.09-.53-10.81h2.52c-.29,2.48-.43,6.08-.43,10.81v2.79c0,2.92-.76,5.16-2.27,6.72Z"></path><path d="m195.48,536.68v-22.05h4.38v22.05h-4.38Z"></path><path d="m218.09,535.04c1.19-.17,2.21-.36,3.03-.58.83-.22,1.35-.41,1.58-.56l-.83,2.79h-13.2v-22.05h4.38v20.66h1.33c1.28,0,2.52-.08,3.71-.25Z"></path><path d="m242.89,515.92c2.02.86,3.58,2.13,4.68,3.8,1.09,1.67,1.64,3.69,1.64,6.05s-.56,4.43-1.69,6.07c-1.13,1.64-2.65,2.85-4.56,3.65-1.91.8-4.03,1.19-6.35,1.19h-7.43v-22.05h6.57c2.74,0,5.12.43,7.15,1.29Zm-.71,17c1.46-1.62,2.19-4,2.19-7.11s-.76-5.57-2.27-7.28c-1.51-1.71-3.76-2.57-6.75-2.57h-1.79v19.4h2.19c2.83,0,4.97-.81,6.44-2.44Z"></path><path d="m256.7,536.68v-22.05h4.38v22.05h-4.38Z"></path><path d="m288.24,514.63c-.15,1.17-.26,2.44-.33,3.81-.07,1.37-.1,3.15-.1,5.34v13.23h-1.03l-15.29-17.68v8.19c0,4.22.19,7.27.56,9.15h-2.55c.15-1.13.26-2.36.32-3.7.05-1.34.09-3.16.12-5.46v-12.9h3.48l12.83,14.92v-5.77c0-4.22-.19-7.27-.56-9.15h2.55Z"></path><path d="m314.47,526.9v8.82c-.97.46-2.09.83-3.35,1.09-1.26.27-2.5.4-3.71.4-2.59,0-4.79-.48-6.6-1.44-1.81-.96-3.18-2.28-4.1-3.95-.92-1.67-1.38-3.57-1.38-5.69,0-2.25.51-4.3,1.53-6.14,1.02-1.83,2.44-3.28,4.26-4.33,1.82-1.05,3.9-1.58,6.22-1.58,1.26,0,2.49.15,3.7.45,1.21.3,2.25.69,3.13,1.18l-.7,2.75c-.86-.95-1.75-1.7-2.65-2.25s-1.97-.83-3.18-.83c-1.42,0-2.68.42-3.78,1.26-1.11.84-1.97,2.04-2.6,3.6-.63,1.56-.94,3.4-.94,5.52,0,1.97.28,3.71.83,5.22.55,1.51,1.36,2.7,2.42,3.56s2.34,1.29,3.85,1.29c1,0,1.89-.14,2.69-.43v-8.52h4.38Z"></path><path d="m336.29,536.77c-1.46-.34-2.79-.82-3.98-1.44l.83-2.75c1.08,1.04,2.28,1.86,3.6,2.47s2.56.91,3.73.91c1.28,0,2.3-.36,3.07-1.08.76-.72,1.14-1.69,1.14-2.9,0-.93-.28-1.71-.83-2.35-.55-.64-1.51-1.21-2.88-1.69l-2.36-.83c-1.92-.68-3.36-1.54-4.29-2.55-.94-1.02-1.41-2.31-1.41-3.88,0-1.33.32-2.49.96-3.5.64-1.01,1.55-1.78,2.74-2.32,1.18-.54,2.55-.81,4.1-.81,1.17,0,2.39.16,3.67.46,1.27.31,2.44.73,3.5,1.26l-.8,2.46c-.99-.93-2.03-1.64-3.12-2.14-1.08-.5-2.12-.75-3.12-.75-1.17,0-2.11.34-2.82,1.03-.71.69-1.06,1.58-1.06,2.69,0,.88.3,1.64.9,2.27s1.62,1.23,3.08,1.81l2.32.9c1.88.73,3.27,1.6,4.18,2.6.91,1.01,1.36,2.28,1.36,3.83,0,2.08-.74,3.74-2.22,4.97-1.48,1.24-3.5,1.86-6.07,1.86-1.35,0-2.75-.17-4.21-.51Z"></path><path d="m370.34,516.34c1.56,1.14,2.34,2.76,2.34,4.86s-.79,3.84-2.37,5.02c-1.58,1.18-3.78,1.77-6.58,1.77h-3.28v8.69h-4.38v-22.05h7.26c3.12,0,5.46.57,7.01,1.71Zm-2.37,5.02c0-1.79-.39-3.12-1.16-4-.77-.87-2.03-1.31-3.78-1.31h-2.59v10.51h2.49c3.36,0,5.04-1.74,5.04-5.21Z"></path><path d="m388.13,529.88h-8.32l-.23.56c-.53,1.19-.95,2.37-1.24,3.52-.3,1.15-.45,2.06-.45,2.72h-2.99c.93-1.79,2.09-4.23,3.48-7.33l6.53-14.86h1.09l9.72,22.19h-4.71l-2.88-6.8Zm-.63-1.46l-3.48-8.26-3.58,8.26h7.06Z"></path><path d="m405.24,535.77c-1.79-.96-3.15-2.29-4.08-4s-1.39-3.67-1.39-5.9.49-4.18,1.48-5.97c.98-1.79,2.36-3.21,4.13-4.25,1.77-1.04,3.76-1.56,5.97-1.56,1.17,0,2.33.14,3.48.42,1.15.28,2.16.64,3.02,1.08l-.9,2.72c-.93-1.02-1.81-1.76-2.65-2.22-.84-.46-1.74-.7-2.69-.7-1.31,0-2.48.42-3.52,1.26-1.04.84-1.86,2.05-2.45,3.62-.6,1.57-.9,3.43-.9,5.57,0,1.95.26,3.68.8,5.19.53,1.51,1.31,2.7,2.34,3.55,1.03.85,2.27,1.28,3.73,1.28,1.13,0,2.22-.27,3.28-.8,1.06-.53,2.01-1.24,2.85-2.12l.6,2.79c-.95.46-2,.83-3.13,1.09s-2.29.4-3.47.4c-2.54,0-4.71-.48-6.5-1.44Z"></path><path d="m439.87,534.06l-.83,2.62h-14.03v-22.05h13.8v2.62c-.86-.38-1.9-.67-3.1-.9s-2.8-.33-4.79-.33h-1.53v8.96h8.62l-.76,1.46h-7.86v8.86h2.12c3.12,0,5.9-.41,8.36-1.23Z"></path><path d="m449.22,536.77c-1.46-.34-2.79-.82-3.98-1.44l.83-2.75c1.08,1.04,2.28,1.86,3.6,2.47s2.56.91,3.73.91c1.28,0,2.3-.36,3.07-1.08.76-.72,1.14-1.69,1.14-2.9,0-.93-.28-1.71-.83-2.35-.55-.64-1.51-1.21-2.88-1.69l-2.36-.83c-1.92-.68-3.36-1.54-4.29-2.55-.94-1.02-1.41-2.31-1.41-3.88,0-1.33.32-2.49.96-3.5.64-1.01,1.55-1.78,2.74-2.32,1.18-.54,2.55-.81,4.1-.81,1.17,0,2.39.16,3.67.46,1.27.31,2.44.73,3.5,1.26l-.8,2.46c-.99-.93-2.03-1.64-3.12-2.14-1.08-.5-2.12-.75-3.12-.75-1.17,0-2.11.34-2.82,1.03-.71.69-1.06,1.58-1.06,2.69,0,.88.3,1.64.9,2.27s1.62,1.23,3.08,1.81l2.32.9c1.88.73,3.27,1.6,4.18,2.6.91,1.01,1.36,2.28,1.36,3.83,0,2.08-.74,3.74-2.22,4.97-1.48,1.24-3.5,1.86-6.07,1.86-1.35,0-2.75-.17-4.21-.51Z"></path></g></svg>