<svg version="1.2" xmlns="http://www.w3.org/2000/svg" viewBox="0 0 700 700" width="700" height="700">
	<style>
		.s0 { fill: #f1e1ee } 
	</style>
	<path fill-rule="evenodd" class="s0" d="m366.15 650.8l6.92-0.67 4.22 43.34-6.92 0.67z"/>
	<path fill-rule="evenodd" class="s0" d="m397.61 647.87l6.81-1.39 8.43 41.29-6.8 1.39z"/>
	<path fill-rule="evenodd" class="s0" d="m428.82 641.57l6.63-2.1 12.29 38.85-6.63 2.1z"/>
	<path fill-rule="evenodd" class="s0" d="m459.28 632.01l6.37-2.78 15.74 36.07-6.37 2.78z"/>
	<path fill-rule="evenodd" class="s0" d="m488.65 619.31l6.05-3.43 18.73 33.01-6.05 3.43z"/>
	<path fill-rule="evenodd" class="s0" d="m516.75 603.46l5.66-4.04 21.24 29.74-5.65 4.04z"/>
	<path fill-rule="evenodd" class="s0" d="m543.11 584.7l5.21-4.61 23.29 26.33-5.21 4.61z"/>
	<path fill-rule="evenodd" class="s0" d="m567.53 563.19l4.7-5.12 24.87 22.84-4.7 5.11z"/>
	<path fill-rule="evenodd" class="s0" d="m589.64 539.25l4.15-5.57 25.97 19.3-4.15 5.58z"/>
	<path fill-rule="evenodd" class="s0" d="m609.25 512.97l3.55-5.97 26.63 15.79-3.55 5.98z"/>
	<path fill-rule="evenodd" class="s0" d="m626.1 484.67l2.91-6.31 26.86 12.34-2.91 6.32z"/>
	<path fill-rule="evenodd" class="s0" d="m639.94 454.57l2.23-6.59 26.67 9.01-2.22 6.59z"/>
	<path fill-rule="evenodd" class="s0" d="m650.59 423.06l1.52-6.78 26.11 5.86-1.52 6.78z"/>
	<path fill-rule="evenodd" class="s0" d="m657.89 390.49l0.81-6.9 25.19 2.94-0.81 6.9z"/>
	<path fill-rule="evenodd" class="s0" d="m661.79 357.2l0.09-6.95 23.96 0.31-0.09 6.95z"/>
	<path fill-rule="evenodd" class="s0" d="m661.65 316.66l22.47-2.03 0.62 6.92-22.47 2.03z"/>
	<path fill-rule="evenodd" class="s0" d="m657.89 283.06l20.78-4.09 1.34 6.82-20.77 4.09z"/>
	<path fill-rule="evenodd" class="s0" d="m650.58 249.94l18.89-5.83 2.05 6.64-18.89 5.83z"/>
	<path fill-rule="evenodd" class="s0" d="m639.81 217.58l16.89-7.23 2.74 6.39-16.89 7.23z"/>
	<path fill-rule="evenodd" class="s0" d="m625.66 186.4l14.82-8.27 3.39 6.07-14.82 8.27z"/>
	<path fill-rule="evenodd" class="s0" d="m608.25 156.78l12.73-8.96 4 5.68-12.73 8.96z"/>
	<path fill-rule="evenodd" class="s0" d="m587.76 129l10.68-9.31 4.57 5.23-10.68 9.32z"/>
	<path fill-rule="evenodd" class="s0" d="m564.46 103.41l8.71-9.34 5.08 4.74-8.7 9.34z"/>
	<path fill-rule="evenodd" class="s0" d="m538.47 80.25l6.85-9.08 5.55 4.19-6.85 9.07z"/>
	<path fill-rule="evenodd" class="s0" d="m510.12 59.84l5.14-8.54 5.96 3.59-5.15 8.54z"/>
	<path fill-rule="evenodd" class="s0" d="m479.65 42.39l3.64-7.77 6.29 2.94-3.64 7.78z"/>
	<path fill-rule="evenodd" class="s0" d="m447.35 28.21l2.35-6.79 6.57 2.27-2.35 6.79z"/>
	<path fill-rule="evenodd" class="s0" d="m413.63 17.42l1.31-5.63 6.77 1.57-1.31 5.63z"/>
	<path fill-rule="evenodd" class="s0" d="m378.81 10.2l0.54-4.34 6.9 0.85-0.54 4.35z"/>
</svg>