<?xml version="1.0" encoding="UTF-8"?>
<svg id="Layer_1" data-name="Layer 1" xmlns="http://www.w3.org/2000/svg" viewBox="0 0 460 180"><metadata><c2pa:manifest xmlns:c2pa="http://c2pa.org/manifest">AAA0N2p1bWIAAAAeanVtZGMycGEAEQAQgAAAqgA4m3EDYzJwYQAAADQRanVtYgAAAEdqdW1kYzJtYQARABCAAACqADibcQN1cm46dXVpZDpiYjkzYmUzMS0yNjhlLTQyMzktYTNkOC0yOWIzOGZkMDM0N2MAAAABp2p1bWIAAAApanVtZGMyYXMAEQAQgAAAqgA4m3EDYzJwYS5hc3NlcnRpb25zAAAAAMpqdW1iAAAAJmp1bWRjYm9yABEAEIAAAKoAOJtxA2MycGEuYWN0aW9ucwAAAACcY2JvcqFnYWN0aW9uc4GjZmFjdGlvbmtjMnBhLmVkaXRlZG1zb2Z0d2FyZUFnZW50bUFkb2JlIEZpcmVmbHlxZGlnaXRhbFNvdXJjZVR5cGV4Rmh0dHA6Ly9jdi5pcHRjLm9yZy9uZXdzY29kZXMvZGlnaXRhbHNvdXJjZXR5cGUvdHJhaW5lZEFsZ29yaXRobWljTWVkaWEAAACsanVtYgAAAChqdW1kY2JvcgARABCAAACqADibcQNjMnBhLmhhc2guZGF0YQAAAAB8Y2JvcqVqZXhjbHVzaW9uc4GiZXN0YXJ0GMVmbGVuZ3RoGUWgZG5hbWVuanVtYmYgbWFuaWZlc3RjYWxnZnNoYTI1NmRoYXNoWCDkq1ooR4dwG2XHV47EfNhK1S5OMchxsr04ZIMbthVGxmNwYWRJAAAAAAAAAAAAAAACC2p1bWIAAAAkanVtZGMyY2wAEQAQgAAAqgA4m3EDYzJwYS5jbGFpbQAAAAHfY2JvcqhoZGM6dGl0bGVvR2VuZXJhdGVkIEltYWdlaWRjOmZvcm1hdG1pbWFnZS9zdmcreG1samluc3RhbmNlSUR4LHhtcDppaWQ6ZTg1ZTRkZWYtMDUwOC00YmJiLTk2MmItMzU2OThjYTJkMmEyb2NsYWltX2dlbmVyYXRvcng2QWRvYmVfSWxsdXN0cmF0b3IvMjguMCBhZG9iZV9jMnBhLzAuNy42IGMycGEtcnMvMC4yNS4ydGNsYWltX2dlbmVyYXRvcl9pbmZvgb9kbmFtZXFBZG9iZSBJbGx1c3RyYXRvcmd2ZXJzaW9uZDI4LjD/aXNpZ25hdHVyZXgZc2VsZiNqdW1iZj1jMnBhLnNpZ25hdHVyZWphc3NlcnRpb25zgqJjdXJseCdzZWxmI2p1bWJmPWMycGEuYXNzZXJ0aW9ucy9jMnBhLmFjdGlvbnNkaGFzaFgg66xm4WqDn3xgnOk59f7WI0GCp10rxJISEEb0ImTQK8GiY3VybHgpc2VsZiNqdW1iZj1jMnBhLmFzc2VydGlvbnMvYzJwYS5oYXNoLmRhdGFkaGFzaFggR0i2x6bJgc3+inAT1a36GE5v0sirjzkciWjc0ohf+LVjYWxnZnNoYTI1NgAAMBBqdW1iAAAAKGp1bWRjMmNzABEAEIAAAKoAOJtxA2MycGEuc2lnbmF0dXJlAAAAL+BjYm9y0oRZDO+iATgkGCGCWQY9MIIGOTCCBCGgAwIBAgIQFY3/J6wj0rglS05jNx4dnjANBgkqhkiG9w0BAQsFADB1MQswCQYDVQQGEwJVUzEjMCEGA1UEChMaQWRvYmUgU3lzdGVtcyBJbmNvcnBvcmF0ZWQxHTAbBgNVBAsTFEFkb2JlIFRydXN0IFNlcnZpY2VzMSIwIAYDVQQDExlBZG9iZSBQcm9kdWN0IFNlcnZpY2VzIEczMB4XDTI0MTAxNTAwMDAwMFoXDTI1MTAxNTIzNTk1OVowgasxEzARBgNVBAMMCkFkb2JlIEMyUEExKDAmBgNVBAsMH0NvbnRlbnQgQXV0aGVudGljaXR5IEluaXRpYXRpdmUxEzARBgNVBAoMCkFkb2JlIEluYy4xETAPBgNVBAcMCFNhbiBKb3NlMRMwEQYDVQQIDApDYWxpZm9ybmlhMQswCQYDVQQGEwJVUzEgMB4GCSqGSIb3DQEJARYRY2FpLW9wc0BhZG9iZS5jb20wggEiMA0GCSqGSIb3DQEBAQUAA4IBDwAwggEKAoIBAQDDEMGB0H09cukxc/Dmg2BiQVYM8/VpJ+2H1Nk8g0605CWGnW/iH6EzFlYWORndElG6hIGuxJJgFoR+IMwqKyL+w7G4UcoFX/+XWu/dKuOuLEA1ciWqMZ0hjJ1oxoVr/mi8XP+bj5JTPRxxjOrD69IDO5HJIaemCbwaaP5IQlwv8YgfOpT1tTLc2yLNjahjbzKPfatuQ6p4ANIznU6ogkqWgQEUV7HMy6fOlT4rawuqF6hHwUkxpHR8Zdr+CpHOGSIEWHBSEs9L2zr5MKfPT1RkyVdt0b+IUqPdQ8VQOOqHTC0WBzPbgOtSVpZ6KW0oei7KYEe6KvO+Y4bRW1I96nE5AgMBAAGjggGMMIIBiDAMBgNVHRMBAf8EAjAAMA4GA1UdDwEB/wQEAwIHgDAeBgNVHSUEFzAVBgkqhkiG9y8BAQwGCCsGAQUFBwMEMIGOBgNVHSAEgYYwgYMwgYAGCSqGSIb3LwECAzBzMHEGCCsGAQUFBwICMGUMY1lvdSBhcmUgbm90IHBlcm1pdHRlZCB0byB1c2UgdGhpcyBMaWNlbnNlIENlcnRpZmljYXRlIGV4Y2VwdCBhcyBwZXJtaXR0ZWQgYnkgdGhlIGxpY2Vuc2UgYWdyZWVtZW50LjBdBgNVHR8EVjBUMFKgUKBOhkxodHRwOi8vcGtpLWNybC5zeW1hdXRoLmNvbS9jYV83YTVjM2EwYzczMTE3NDA2YWRkMTkzMTJiYzFiYzIzZi9MYXRlc3RDUkwuY3JsMDcGCCsGAQUFBwEBBCswKTAnBggrBgEFBQcwAYYbaHR0cDovL3BraS1vY3NwLnN5bWF1dGguY29tMB8GA1UdIwQYMBaAFFcpejJNzP7kNU7AHyRzznNTq99qMA0GCSqGSIb3DQEBCwUAA4ICAQCquXoUtD5z0thp/SKDJOASs0v1eaaJ6JPeiEoV68ncE3uRaRkPXOdtXDdedfm2BBoqr4CJIKV03FgQqpT5Gr0uvboYaCUFIDSz8OzaTD7YuWdOaiMAcIfcK9VFuEYcetqyGad+DCYXVNKRpaTs3ESFu33BCiIQyQtJB4zhLgK77XvoXMR3L7POQORFap5I5A7+obZZG2j+8irfQQJ/q/oW1rMkjUJYiqEErmgmKhI1suwJUmFqvdRxr0PXW6N5lbiTaM8KyfOuJOYWpV+13eTZJdRCDvBBxBxd8oEi1Zm3zO2fQhihnMlrXH2X129coAm82wOjPi4N6tLzP2vMuwRC/MvXI9tOnj7/qZNMBayhoO2aRmCbdf6x989fdfMwWZ/MgeJh9SNrmcorZuzg/vW2K3/VT8UPbF2WnNlK6lGoIwbP5RN5cjwis3llH/4XytKyZEBK2OeCDP/AO5zBwOUltjj9EqrcGsCLgtqYswh/Cj91svnlMOUg53scJ+ZKBptzVY7QqOLctb9Vmc/1UbxaJQb5aq03U5AgBmYVQ5Z1dAYtqD4jU5pnUFckM2wmJdyDZMY0FIQ+jjgCR+f0zMUYrIHlS6sw3g0fSqVqaGuEqJXT5vvcWPHffQ/9+vEGbPHk2kBCE0qSzH4XjPVLwDLWjZMEiSR4AVsPPLx/8XG7K1kGpTCCBqEwggSJoAMCAQICEAyotlR7iebSBol1zYubieIwDQYJKoZIhvcNAQELBQAwbDELMAkGA1UEBhMCVVMxIzAhBgNVBAoTGkFkb2JlIFN5c3RlbXMgSW5jb3Jwb3JhdGVkMR0wGwYDVQQLExRBZG9iZSBUcnVzdCBTZXJ2aWNlczEZMBcGA1UEAxMQQWRvYmUgUm9vdCBDQSBHMjAeFw0xNjExMjkwMDAwMDBaFw00MTExMjgyMzU5NTlaMHUxCzAJBgNVBAYTAlVTMSMwIQYDVQQKExpBZG9iZSBTeXN0ZW1zIEluY29ycG9yYXRlZDEdMBsGA1UECxMUQWRvYmUgVHJ1c3QgU2VydmljZXMxIjAgBgNVBAMTGUFkb2JlIFByb2R1Y3QgU2VydmljZXMgRzMwggIiMA0GCSqGSIb3DQEBAQUAA4ICDwAwggIKAoICAQC3Hy69vQmzXEhs/gyDrmwB6lF4JaSAPomnsbKIZNr2iXaB+fkd85X8eJiNmI7P5O4cVT4Nc1p3zrESqBV4ZUyW8gcZ78QdwoHG8QNd2VNcHnMgSR+XT9Iafsnq9Nfww3Jt9KL3l5ANQ5n1+MJqr48EWNLll942bOL/JH4ywDSMoqhZqtJEIUUUGlQVBZ8CAvJc7LE6ddA5C52PE2Ppa7RfQgHXf4gfXVZwpxYRZcziPiOHqEvLb0J3cShUbejFxV6cwX8QyAPa1ePHg1RtM0HX+D34xHo3DkyGnmT+Ddq00TEDGG26AL5PdINKFIQl+zaq6KJFQe1fdGE5wrWzU4mBPmzaz3EbLn+7FWlwAhorYqIMldbfHE3ydc+aTU1JW7+bG19qmvhO9IluGtTtQDeqFBj2fg6faxsfVfVPD7stN6TwoIDlkOCE4RE+Iin8m3z3eqi/VsTmsmRqBxWDRaqOHz02EJoEDxXJG3ei+UbIIp01XZQvdufm90WxOTuqqan2ZqTPX9K5VdjEh/ovr7xFc5q1dZo+Sa5y4sTVM854/tLU3klOgUKzzSXYPYS3GhBcYJHjwr9xNRHnNX99D6F0g7OijScWfvtjxh13aTv/H0ETvymah4yfDpVdh9cK5YSCPqnuOlsujFAyhYwJXOWDvZZU2EkWVLDhoPx9zp7N4QIDAQABo4IBNDCCATAwEgYDVR0TAQH/BAgwBgEB/wIBADA1BgNVHR8ELjAsMCqgKKAmhiRodHRwOi8vY3JsLmFkb2JlLmNvbS9hZG9iZXJvb3RnMi5jcmwwDgYDVR0PAQH/BAQDAgEGMBQGA1UdJQQNMAsGCSqGSIb3LwEBBzBXBgNVHSAEUDBOMEwGCSqGSIb3LwECAzA/MD0GCCsGAQUFBwIBFjFodHRwczovL3d3dy5hZG9iZS5jb20vbWlzYy9wa2kvcHJvZF9zdmNlX2Nwcy5odG1sMCQGA1UdEQQdMBukGTAXMRUwEwYDVQQDEwxTWU1DLTQwOTYtMzMwHQYDVR0OBBYEFFcpejJNzP7kNU7AHyRzznNTq99qMB8GA1UdIwQYMBaAFKYc4W1UJEyoj0hyv26pjNXk7DHUMA0GCSqGSIb3DQEBCwUAA4ICAQBxzuUHjKbcLdzI4DtlXgCSgZXrlSAkr59pOF3JfPG42qVNAGU7JcEYXJ6+WbfcGwY7WYMl+jO7IvJPb7shXFYW9bnJgxX7lLU14KExchmcLNY1ee6IhBJ2Y8PzZMRUKSd5CkURPg0PBLGjz/KR/DofHx+G4rPTCOGORYxeYrd01lci5hVxvKccvIk7MD69ZTewfZPSM+0WnsU3f0Zmd7hgbRpUyWceG0eHFpdUKK/ZFWhHjDVC28odCnN885tHncKXviItK0ZUUo/AIthFKlhEXsnq9VL9fFbgvO83ZvpUQo5y8mY3cuGnEVGXdhjNb53CfC1u4dbpYmWaN99subUzEsUaUb3loLPfVfzDOpg2y9v37kBdy/wuXr20teY7U62xj/fAgs1QSnhUtlMTfCqbefyEycKVmKIrJkJLsvgTSYKVvH4FFIwfd5WjqOC97jX98rcVAzhAI0iSkazsWOMvL6m0L4nLJapx+85GsVX8Y6AHmEP4bmCElwil6KAP+UewJFiw5rmwV2pESHAhYuZJa03B8tl0nd2QJzvJGmbeBqXqpF9ORinFM3HErK8puRokOjFH2+1asLeI2tB31W/ELdNe27Ogduq6Z6qBwCp59YX27qydDhD0WRfN64kCs25K88iGAGNW2CAfTDS+b+WYJBiIL9jXYZ4LF+BiUvfdu6Nmc2lnVHN0oWl0c3RUb2tlbnOBoWN2YWxZDlowgg5WMAMCAQAwgg5NBgkqhkiG9w0BBwKggg4+MIIOOgIBAzEPMA0GCWCGSAFlAwQCAQUAMIGDBgsqhkiG9w0BCRABBKB0BHIwcAIBAQYJYIZIAYb9bAcBMDEwDQYJYIZIAWUDBAIBBQAEIMjHwbY0hNCaf3Cxj5r8C8wpnTg+Gy4Io4pws3Zf+AD8AhEAiZKmtU3Hy0Y/3og5Co/fpxgPMjAyNTA5MjUxMDI3NDBaAgkA+SjzOsYLQMCgggvaMIIFHjCCAwagAwIBAgIQCRkNwSych9sy/Qq1UL3tSzANBgkqhkiG9w0BAQsFADBpMQswCQYDVQQGEwJVUzEXMBUGA1UEChMORGlnaUNlcnQsIEluYy4xQTA/BgNVBAMTOERpZ2lDZXJ0IFRydXN0ZWQgRzQgVGltZVN0YW1waW5nIFJTQTQwOTYgU0hBMjU2IDIwMjUgQ0ExMB4XDTI1MDYxMTAwMDAwMFoXDTM2MDkxMDIzNTk1OVowXzELMAkGA1UEBhMCVVMxFzAVBgNVBAoTDkRpZ2lDZXJ0LCBJbmMuMTcwNQYDVQQDEy5BZG9iZSBTSEEyNTYgRUNDMjU2IFRpbWVzdGFtcCBSZXNwb25kZXIgMjAyNSAxMFkwEwYHKoZIzj0CAQYIKoZIzj0DAQcDQgAEOpnJ1dlI70vziNfGsnAg894iynDv+TyM/WLDFvlk7Q9uI3eKNW5ux1vNXfywrXuGdLS7mGcY4R0fYSexTBGp8qOCAZUwggGRMAwGA1UdEwEB/wQCMAAwHQYDVR0OBBYEFCB2oaNucRWPdJUNrqQspDY/WBkVMB8GA1UdIwQYMBaAFO9vU0rp5AZ8esrikFb2L9RJ7MtOMA4GA1UdDwEB/wQEAwIHgDAWBgNVHSUBAf8EDDAKBggrBgEFBQcDCDCBlQYIKwYBBQUHAQEEgYgwgYUwJAYIKwYBBQUHMAGGGGh0dHA6Ly9vY3NwLmRpZ2ljZXJ0LmNvbTBdBggrBgEFBQcwAoZRaHR0cDovL2NhY2VydHMuZGlnaWNlcnQuY29tL0RpZ2lDZXJ0VHJ1c3RlZEc0VGltZVN0YW1waW5nUlNBNDA5NlNIQTI1NjIwMjVDQTEuY3J0MF8GA1UdHwRYMFYwVKBSoFCGTmh0dHA6Ly9jcmwzLmRpZ2ljZXJ0LmNvbS9EaWdpQ2VydFRydXN0ZWRHNFRpbWVTdGFtcGluZ1JTQTQwOTZTSEEyNTYyMDI1Q0ExLmNybDAgBgNVHSAEGTAXMAgGBmeBDAEEAjALBglghkgBhv1sBwEwDQYJKoZIhvcNAQELBQADggIBAEqc/irOueTptp7riY2S4C96BV8XhZnvnY8IgXVT5ByEr+H0Q17Tv1IBTuzrp/rOjqDa2CkOhsWkS1Lttw5qwnhMrwXROUV/wgBLSuO9z7A7KPHNbZpI6g0h84MQ0bMKF/xB1iLEka4yTPEVgeyndyj42tI7mbZBVaSc6o5P3aifVGqsoinyqwkYsCKS1NQnQURZ4+rsSU34dMu8c6/q1jjx1TCTXsxed4iaPcIvkEjl9nnuma23SgGB1jvLDPhGRtL8zWlnqlDdS5U4Oe0NTyqSgsYgpioKrMRl5knForGT84xLlDsqyw/TiY8r1zvEnh73+sTxcIZwhN4HNnnbB+0AlXbCdzqSmeyTLm8CNhsKiPTIMBpyiRt+ZPvL0BPTC84lQ99IuMvI8jknTGn3lx2LxsdGhgMAjmzNnsxkpp3VVq/Qz4dXBmpjQK401JHFkRdMqNFMycHRteFUKj5eZ5Y/9rS6pNtOg09hbCDECgmuNlCWyIUtoXS8ZxzfEqZKcnlOtoFOFU+WUVmqpm78PuEBSIB0KFj3jDsDaVR6n1gKHG9r+27KJoLyqDHeeZIxo253LeucYpBGkjHuU5RozZn6M26tQQvDixfXqgOi+GVtWYnkSSD9GAYvRIkF+Zh9CzcjVgPwroGIHfW8c0RxfvUaFV/Gq/N9xHwaRj7EUh5MMIIGtDCCBJygAwIBAgIQDcesVwX/IZkuQEMiDDpJhjANBgkqhkiG9w0BAQsFADBiMQswCQYDVQQGEwJVUzEVMBMGA1UEChMMRGlnaUNlcnQgSW5jMRkwFwYDVQQLExB3d3cuZGlnaWNlcnQuY29tMSEwHwYDVQQDExhEaWdpQ2VydCBUcnVzdGVkIFJvb3QgRzQwHhcNMjUwNTA3MDAwMDAwWhcNMzgwMTE0MjM1OTU5WjBpMQswCQYDVQQGEwJVUzEXMBUGA1UEChMORGlnaUNlcnQsIEluYy4xQTA/BgNVBAMTOERpZ2lDZXJ0IFRydXN0ZWQgRzQgVGltZVN0YW1waW5nIFJTQTQwOTYgU0hBMjU2IDIwMjUgQ0ExMIICIjANBgkqhkiG9w0BAQEFAAOCAg8AMIICCgKCAgEAtHgx0wqYQXK+PEbAHKx126NGaHS0URedTa2NDZS1mZaDLFTtQ2oRjzUXMmxCqvkbsDpz4aH+qbxeLho8I6jY3xL1IusLopuW2qftJYJaDNs1+JH7Z+QdSKWM06qchUP+AbdJgMQB3h2DZ0Mal5kYp77jYMVQXSZH++0trj6Ao+xh/AS7sQRuQL37QXbDhAktVJMQbzIBHYJBYgzWIjk8eDrYhXDEpKk7RdoX0M980EpLtlrNyHw0Xm+nt5pnYJU3Gmq6bNMI1I7Gb5IBZK4ivbVCiZv7PNBYqHEpNVWC2ZQ8BbfnFRQVESYOszFI2Wv82wnJRfN20VRS3hpLgIR4hjzL0hpoYGk81coWJ+KdPvMvaB0WkE/2qHxJ0ucS638ZxqU14lDnki7CcoKCz6eum5A19WZQHkqUJfdkDjHkccpL6uoG8pbF0LJAQQZxst7VvwDDjAmSFTUms+wV/FbWBqi7fTJnjq3hj0XbQcd8hjj/q8d6ylgxCZSKi17yVp2NL+cnT6Toy+rN+nM8M7LnLqCrO2JP3oW//1sfuZDKiDEb1AQ8es9Xr/u6bDTnYCTKIsDq1BtmXUqEG1NqzJKS4kOmxkYp2WyODi7vQTCBZtVFJfVZ3j7OgWmnhFr4yUozZtqgPrHRVHhGNKlYzyjlroPxul+bgIspzOwbtmsgY1MCAwEAAaOCAV0wggFZMBIGA1UdEwEB/wQIMAYBAf8CAQAwHQYDVR0OBBYEFO9vU0rp5AZ8esrikFb2L9RJ7MtOMB8GA1UdIwQYMBaAFOzX44LScV1kTN8uZz/nupiuHA9PMA4GA1UdDwEB/wQEAwIBhjATBgNVHSUEDDAKBggrBgEFBQcDCDB3BggrBgEFBQcBAQRrMGkwJAYIKwYBBQUHMAGGGGh0dHA6Ly9vY3NwLmRpZ2ljZXJ0LmNvbTBBBggrBgEFBQcwAoY1aHR0cDovL2NhY2VydHMuZGlnaWNlcnQuY29tL0RpZ2lDZXJ0VHJ1c3RlZFJvb3RHNC5jcnQwQwYDVR0fBDwwOjA4oDagNIYyaHR0cDovL2NybDMuZGlnaWNlcnQuY29tL0RpZ2lDZXJ0VHJ1c3RlZFJvb3RHNC5jcmwwIAYDVR0gBBkwFzAIBgZngQwBBAIwCwYJYIZIAYb9bAcBMA0GCSqGSIb3DQEBCwUAA4ICAQAXzvsWgBz+Bz0RdnEwvb4LyLU0pn/N0IfFiBowf0/Dm1wGc/Do7oVMY2mhXZXjDNJQa8j00DNqhCT3t+s8G0iP5kvN2n7Jd2E4/iEIUBO41P5F448rSYJ59Ib61eoalhnd6ywFLerycvZTAz40y8S4F3/a+Z1jEMK/DMm/axFSgoR8n6c3nuZB9BfBwAQYK9FHaoq2e26MHvVY9gCDA/JYsq7pGdogP8HRtrYfctSLANEBfHU16r3J05qX3kId+ZOczgj5kjatVB+NdADVZKON/gnZruMvNYY2o1f4MXRJDMdTSlOLh0HCn2cQLwQCqjFbqrXuvTPSegOOzr4EWj7PtspIHBldNE2K9i697cvaiIo2p61Ed2p8xMJb82Yosn0z4y25xUbI7GIN/TpVfHIqQ6Ku/qjTY6hc3hsXMrS+U0yy+GWqAXam4ToWd2UQ1KYT70kZjE4YtL8Pbzg0c1ugMZyZZd/BdHLiRu7hAWE6bTEm4XYRkA6Tl4KSFLFk43esaUeqGkH/wyW4N7OigizwJWeukcyIPbAvjSabnf7+Pu0VrFgoiovRDiyx3zEdmcif/sYQsfch28bZeUz2rtY/9TCA6TD8dC3JE3rYkrhLULy7Dc90G6e8BlqmyIjlgp2+VqsS9/wQD7yFylIz0scmbKvFoW2jNrbM1pD2T7m3XDGCAb4wggG6AgEBMH0waTELMAkGA1UEBhMCVVMxFzAVBgNVBAoTDkRpZ2lDZXJ0LCBJbmMuMUEwPwYDVQQDEzhEaWdpQ2VydCBUcnVzdGVkIEc0IFRpbWVTdGFtcGluZyBSU0E0MDk2IFNIQTI1NiAyMDI1IENBMQIQCRkNwSych9sy/Qq1UL3tSzANBglghkgBZQMEAgEFAKCB0TAaBgkqhkiG9w0BCQMxDQYLKoZIhvcNAQkQAQQwHAYJKoZIhvcNAQkFMQ8XDTI1MDkyNTEwMjc0MFowKwYLKoZIhvcNAQkQAgwxHDAaMBgwFgQU14e6eSljn7jBL0qmFlF0y+ClgPMwLwYJKoZIhvcNAQkEMSIEIKHYYnV8E7muQ0mL2NK5td8GlJlTxuC0nmxgIkGI6rc0MDcGCyqGSIb3DQEJEAIvMSgwJjAkMCIEINMjr+Jf3T0W8m8vJZ585InbhtLZqrB7JvWYNwhgiVZ4MAoGCCqGSM49BAMCBEcwRQIhAK5gXyqL/Q09rJNe4OQi9TdER2fDrid8tZl/1nWdWuJNAiB8vqq7qEm0Cn9HOZXlIrwgblIuvdYi32wuW8HqUICG62VyVmFsc6Fob2NzcFZhbHOBWQjYMIII1AoBAKCCCM0wggjJBgkrBgEFBQcwAQEEggi6MIIItjCBnqIWBBQXKZNy/6f7WDL/suCOsO2oUAb6rRgPMjAyNTA5MTkyMjA2MjdaMHMwcTBJMAkGBSsOAwIaBQAEFLvfcyV72yOix06JXd/8EYWom4sBBBRXKXoyTcz+5DVOwB8kc85zU6vfagIQFY3/J6wj0rglS05jNx4dnoAAGA8yMDI1MDkxOTIyMDYyN1qgERgPMjAyNTA5MjYyMjA2MjdaMA0GCSqGSIb3DQEBCwUAA4ICAQBd5zZzzwUCjO5DYGsXbpwPB2lcCgc+3c9TkqcjbFaX1kCYnw2iAcxUVQOVejEq4WXliZWUrBq8CoW7D2nVN/V8JFRi21kBjmxbnuExV/ANIKK8pAcVy2+blRfeCc5vFTg7CllK69h6h8OZ7YIyvfOUWs5bL0WbiOO4QK+ciUSkKFaxPjnkjwHgxT+RCmfFjp/Q7L3pu/f90OwK2HAE4mrPaInUv5BstOtL/IV+i70ok7WGCLzG561xYedt0cz2qc7YY+0vtE0CbiIdDPq900haVfPatUesCa89UChhYMGx1SxF+C5x9fY4iFRvkOEjcXGKO22QVw1s17AXCw5lsnBzeNa988jEJnmLK464YPuS0ZG/pSmGTXw7vrbbfIT6thfMVJ+QXxbHvs35+QwV6Wa+uOhZNQJLHbaG500u/abpLFOQjlC6WDS/yRc8zrXpN81HYrksf1rnmFoNLlWsZneCxKg7+T2wqIp2N10sLQZLXdIq1vJLm5O6WEfCenAbIz/S7hCou3FCj45161A4S5VlmD5hzk7gROZDa4+fxcWsIx15Le5/KxpMXIAarKS9lAWJC8rY/uzoPB1xXzm4LGiqyJsjXUbnsqviePUSsQT4CKYUfhqHPwYb2otCvgnEgqsXixHhuWOqtWLfg7AA0DL4U7QiZpXOMaNIvn8epn2MZ6CCBf0wggX5MIIF9TCCA92gAwIBAgIUXd1NQV0yf6Bwg8rU+mNqVOzkhXgwDQYJKoZIhvcNAQELBQAwdTELMAkGA1UEBhMCVVMxIzAhBgNVBAoTGkFkb2JlIFN5c3RlbXMgSW5jb3Jwb3JhdGVkMR0wGwYDVQQLExRBZG9iZSBUcnVzdCBTZXJ2aWNlczEiMCAGA1UEAxMZQWRvYmUgUHJvZHVjdCBTZXJ2aWNlcyBHMzAeFw0yNTA3MTUyMDMyMDhaFw0yNTEwMTMyMDMyMDhaMHoxCzAJBgNVBAYTAlVTMSMwIQYDVQQKExpBZG9iZSBTeXN0ZW1zIEluY29ycG9yYXRlZDFGMEQGA1UEAxM9QWRvYmUgUHJvZHVjdCBTZXJ2aWNlcyBHMyBPQ1NQIFJlc3BvbmRlciAyMDI1LTA3LTE1VDIwOjMyOjA4WjCCAiIwDQYJKoZIhvcNAQEBBQADggIPADCCAgoCggIBAKLmRsLd1ahdUcMN/eWI1G/LbC5QNS3icbnk2brWQOxhbk99e3OZMRS3elGH7mCxCW7qSCgm0n8Kl6v5fAM5L8RFJyVSI1HvijAp1h3wFZLpdf8Zx5xAopT//6Z8csg2IQRsgmfIVXx6x1rQ/w2pTOBXACqnIVTEggDC84q/C8hEOs9Ec+k6Rd37ntp72SawMiwCYTs4QKN/NZA4upvX552jxOJWnmC6FhojkHKctfKu+NNYlBhxYvD2G1D9ofYIbjzCp49NkIyFf97s5X7GaNP364+5BJODfThoXrZnb8GnD8oQMP+PQNHaOotBdqW4doW2qJ1AYcLt5UpSW2V4tlOofqcrAAfhCTAzH0Q0/U/8DkITHB5/0VZ7lxGW9i2r163pkec9E0/+5OFtCT585u3v+L0Zvv5PzxKrVoNDfowJbN6FBPZWRim11s9sTlsbVXdQqZIrd6vKYN3vfHND1xOPSLGd+GDzFHvrdjgmbnn+7+0+1tUqC4+8+DgrVrhkeXeLseIf+1qvOglOWl2K9c49p+Uf8e1A7iXfSQClyBgMDf01IFA+UEnQGx17TEOE0+0rUuiGdkm14qZ1MS9MZfKk84negesPKW0Tp0o6/+IHt/q+SOZvH0Eo/3hFLe27gJ7RTXfj0c1RQuBM5jL/bdbS2N8ikf3oxxECxQzcyqhTAgMBAAGjeDB2MB0GA1UdDgQWBBQXKZNy/6f7WDL/suCOsO2oUAb6rTAfBgNVHSMEGDAWgBRXKXoyTcz+5DVOwB8kc85zU6vfajAOBgNVHQ8BAf8EBAMCB4AwEwYDVR0lBAwwCgYIKwYBBQUHAwkwDwYJKwYBBQUHMAEFBAIFADANBgkqhkiG9w0BAQsFAAOCAgEATHTjXThfJSfb3U+60TD6GMV43I2Z37blRU6e7MIdLqkgcmSFV5hu16dWNVFDwNR8z5Gg8kVcoKf6CAlbGWUw9HEQAe/29Mg9FXCljMfzq/T01x3Jzlk+mjUzup+7EMevROH3s6J+29k4tFyGdsbNQgsvGYBTzhcFk+dkHNC1rLq503To6pV9OylQR3GCEm7jAbiy7jnXBApX1W1JyT4oRmXONs1MAzef6nfs5esmw1115gI1E6Og2XF/Z1eqoHYDh26S+rW9E2ZypQCMIXhkQVpCw4d4L2b3xdrbYBCHYHqfESViYSXW9ifQRfA1TguUV13V5ZxYDJxy2XqFJhbPmlmU5eW33XJ9xD67xyVEgeLPvamb6ij18Nx5Dlov3n7OEOQHJNtlztgIlW4JZYmPvSNfnOp8932k5t0A8/+d5nX5d4xMAWXu0YJOT8xtKxIIPGnY5v2h/nD6OKhTx4rYvGxjtHEBThIQDw6HTa5/GnnDsVxbQLEvMxCXroilsWuyNga9FyVDgoBmIdb7ff1zMOEBHbGbf1tbxTc6XhMuFza9y3XYDVVD3IWrU8o/CVhiIqF1n/n4dJuuFYkV+ebPhVDixok3oBgkfwC4ADerve6nFvdGEKchXTk6y+qFsQYO64YEgt24OiyOOmWDCu5FRTH3pHTtwq+f3KHQW3A57TdjcGFkWQp3AAAAAAAAAAAAAAAAAAAAAAAAAAAAAAAAAAAAAAAAAAAAAAAAAAAAAAAAAAAAAAAAAAAAAAAAAAAAAAAAAAAAAAAAAAAAAAAAAAAAAAAAAAAAAAAAAAAAAAAAAAAAAAAAAAAAAAAAAAAAAAAAAAAAAAAAAAAAAAAAAAAAAAAAAAAAAAAAAAAAAAAAAAAAAAAAAAAAAAAAAAAAAAAAAAAAAAAAAAAAAAAAAAAAAAAAAAAAAAAAAAAAAAAAAAAAAAAAAAAAAAAAAAAAAAAAAAAAAAAAAAAAAAAAAAAAAAAAAAAAAAAAAAAAAAAAAAAAAAAAAAAAAAAAAAAAAAAAAAAAAAAAAAAAAAAAAAAAAAAAAAAAAAAAAAAAAAAAAAAAAAAAAAAAAAAAAAAAAAAAAAAAAAAAAAAAAAAAAAAAAAAAAAAAAAAAAAAAAAAAAAAAAAAAAAAAAAAAAAAAAAAAAAAAAAAAAAAAAAAAAAAAAAAAAAAAAAAAAAAAAAAAAAAAAAAAAAAAAAAAAAAAAAAAAAAAAAAAAAAAAAAAAAAAAAAAAAAAAAAAAAAAAAAAAAAAAAAAAAAAAAAAAAAAAAAAAAAAAAAAAAAAAAAAAAAAAAAAAAAAAAAAAAAAAAAAAAAAAAAAAAAAAAAAAAAAAAAAAAAAAAAAAAAAAAAAAAAAAAAAAAAAAAAAAAAAAAAAAAAAAAAAAAAAAAAAAAAAAAAAAAAAAAAAAAAAAAAAAAAAAAAAAAAAAAAAAAAAAAAAAAAAAAAAAAAAAAAAAAAAAAAAAAAAAAAAAAAAAAAAAAAAAAAAAAAAAAAAAAAAAAAAAAAAAAAAAAAAAAAAAAAAAAAAAAAAAAAAAAAAAAAAAAAAAAAAAAAAAAAAAAAAAAAAAAAAAAAAAAAAAAAAAAAAAAAAAAAAAAAAAAAAAAAAAAAAAAAAAAAAAAAAAAAAAAAAAAAAAAAAAAAAAAAAAAAAAAAAAAAAAAAAAAAAAAAAAAAAAAAAAAAAAAAAAAAAAAAAAAAAAAAAAAAAAAAAAAAAAAAAAAAAAAAAAAAAAAAAAAAAAAAAAAAAAAAAAAAAAAAAAAAAAAAAAAAAAAAAAAAAAAAAAAAAAAAAAAAAAAAAAAAAAAAAAAAAAAAAAAAAAAAAAAAAAAAAAAAAAAAAAAAAAAAAAAAAAAAAAAAAAAAAAAAAAAAAAAAAAAAAAAAAAAAAAAAAAAAAAAAAAAAAAAAAAAAAAAAAAAAAAAAAAAAAAAAAAAAAAAAAAAAAAAAAAAAAAAAAAAAAAAAAAAAAAAAAAAAAAAAAAAAAAAAAAAAAAAAAAAAAAAAAAAAAAAAAAAAAAAAAAAAAAAAAAAAAAAAAAAAAAAAAAAAAAAAAAAAAAAAAAAAAAAAAAAAAAAAAAAAAAAAAAAAAAAAAAAAAAAAAAAAAAAAAAAAAAAAAAAAAAAAAAAAAAAAAAAAAAAAAAAAAAAAAAAAAAAAAAAAAAAAAAAAAAAAAAAAAAAAAAAAAAAAAAAAAAAAAAAAAAAAAAAAAAAAAAAAAAAAAAAAAAAAAAAAAAAAAAAAAAAAAAAAAAAAAAAAAAAAAAAAAAAAAAAAAAAAAAAAAAAAAAAAAAAAAAAAAAAAAAAAAAAAAAAAAAAAAAAAAAAAAAAAAAAAAAAAAAAAAAAAAAAAAAAAAAAAAAAAAAAAAAAAAAAAAAAAAAAAAAAAAAAAAAAAAAAAAAAAAAAAAAAAAAAAAAAAAAAAAAAAAAAAAAAAAAAAAAAAAAAAAAAAAAAAAAAAAAAAAAAAAAAAAAAAAAAAAAAAAAAAAAAAAAAAAAAAAAAAAAAAAAAAAAAAAAAAAAAAAAAAAAAAAAAAAAAAAAAAAAAAAAAAAAAAAAAAAAAAAAAAAAAAAAAAAAAAAAAAAAAAAAAAAAAAAAAAAAAAAAAAAAAAAAAAAAAAAAAAAAAAAAAAAAAAAAAAAAAAAAAAAAAAAAAAAAAAAAAAAAAAAAAAAAAAAAAAAAAAAAAAAAAAAAAAAAAAAAAAAAAAAAAAAAAAAAAAAAAAAAAAAAAAAAAAAAAAAAAAAAAAAAAAAAAAAAAAAAAAAAAAAAAAAAAAAAAAAAAAAAAAAAAAAAAAAAAAAAAAAAAAAAAAAAAAAAAAAAAAAAAAAAAAAAAAAAAAAAAAAAAAAAAAAAAAAAAAAAAAAAAAAAAAAAAAAAAAAAAAAAAAAAAAAAAAAAAAAAAAAAAAAAAAAAAAAAAAAAAAAAAAAAAAAAAAAAAAAAAAAAAAAAAAAAAAAAAAAAAAAAAAAAAAAAAAAAAAAAAAAAAAAAAAAAAAAAAAAAAAAAAAAAAAAAAAAAAAAAAAAAAAAAAAAAAAAAAAAAAAAAAAAAAAAAAAAAAAAAAAAAAAAAAAAAAAAAAAAAAAAAAAAAAAAAAAAAAAAAAAAAAAAAAAAAAAAAAAAAAAAAAAAAAAAAAAAAAAAAAAAAAAAAAAAAAAAAAAAAAAAAAAAAAAAAAAAAAAAAAAAAAAAAAAAAAAAAAAAAAAAAAAAAAAAAAAAAAAAAAAAAAAAAAAAAAAAAAAAAAAAAAAAAAAAAAAAAAAAAAAAAAAAAAAAAAAAAAAAAAAAAAAAAAAAAAAAAAAAAAAAAAAAAAAAAAAAAAAAAAAAAAAAAAAAAAAAAAAAAAAAAAAAAAAAAAAAAAAAAAAAAAAAAAAAAAAAAAAAAAAAAAAAAAAAAAAAAAAAAAAAAAAAAAAAAAAAAAAAAAAAAAAAAAAAAAAAAAAAAAAAAAAAAAAAAAAAAAAAAAAAAAAAAAAAAAAAAAAAAAAAAAAAAAAAAAAAAAAAAAAAAAAAAAAAAAAAAAAAAAAAAAAAAAAAAAAAAAAAAAAAAAAAAAAAAAAAAAAAAAAAAAAAAAAAAAAAAAAAAAAAAAAAAAAAAAAAAAAAAAAAAAAAAAAAAAAAAAAAAAAAAAAAAAAAAAAAAAAAAAAAAAAAAAAAAAAAAAAAAAAAAAAAAAAAAAAAAAAAAAAAAAAAAAAAAAAAAAAAAAAAAAAAAAAAAAAAAAAAAAAAAAAAAAAAAAAAAAAAAAAAAAAAAAAAAAAAAAAAAAAAAAAAAAAAAAAAAAAAAAAAAAAAAAAAAAAAAAAAAAAAAAAAAAAAAAAAAAAAAAAAAAAAAAAAAAAAAAAAAAAAAAAAAAAAAAAAAAAAAAAAAAAAAAAAAAAAAAAAAAAAAAAAAAAAAAAAAAAAAAAAAAAAAAAAAAAAAAAAAAAAAAAAAAAAAAAAAAAAAAAAAAAAAAAAAAAAAAAAAAAAAAAAAAAAAAAAAAAAAAAAAAAAAAAAAAAAAAAAAAAAAAAAAAAAAAAAAAAAAAAAAAAAAAAAAAAAAAAAAAAAAAAAAAAAAAAAAAAAAAAAAAAAAAAAAAAAAAAAAAAAAAAAAAAAAAAAAAAAAAAAAAAAAAAAAAAAAAAAAAAAAAAAAAAAAAAAAAAAAAAAAAAAAAAAAAAAAAAAAAAAAAAAAAAAAAAAAAAAAAAAAAAAAAAAAAAAAAAAAAAAAAAAAAAAAAAAAAAAAAAAAAAAAAAAAAAAAAAAAAAAAAAAAAAAAAAA9lkBACJlo3WNsk9usRXmp1aGiLikw9UbnBxWoi8Jn36sHQHhI3I/TCdQeSy9AL1oijJcdxcA+rYkA60ANVPQDuG0RdrldSv6a0yhL9c+euYfLBauDIdto3f522vP++QMvZq97L8UgPO13lM5TPrv5gUxArr4z00PlZoa2JqJk1n1Owpw3UbT6g43OiLL07wRTkuY8lkDxcE/E3Bo/AsQdcVUMThM6vcR2Urofgp/c4y9s4lyL58KKMLKcvOs2yY+xVJZb0HDJszFVrb86tNq/Nwm0DEw+wv9c3guDUI+reUAFumQF8ZSUuVrIlhEfkHJi/kK3OMBW+o6uJleZb9M+L9kmYc=</c2pa:manifest></metadata>
  <defs>
    <style>
      .cls-1 {
        fill: #037b9c;
      }

      .cls-1, .cls-2, .cls-3 {
        stroke-width: 0px;
      }

      .cls-1, .cls-3 {
        fill-rule: evenodd;
      }

      .cls-2 {
        fill: #931f35;
      }

      .cls-3 {
        fill: #b12943;
      }

      .cls-4 {
        fill: none;
        stroke: #b48b3f;
        stroke-miterlimit: 10;
        stroke-width: 1.41px;
      }
    </style>
  </defs>
  <g>
    <path class="cls-3" d="m187.99,74.02c-.91.47-1.77.9-2.15,1.11-.34.19-.54.51-.42.83.1.27.42.42.83.34.61-.1,2.44-.59,5.57-1.75,1.75-.64,6.69-2.57,10.3-3.99,8.83-3.5,16.76-7.17,25.38-9.45,3.8-.98,9.56-2.08,14.63-2.45,4.66-.35,9.8.34,10.93.63.58.15.84-.33.63-.7-.13-.25-.61-.99-1.34-1.64-4.83-4.56-7.87-6.51-14.4-10.18-3.71-2.1-10.92-4.85-12.51-5.1-.91-.16-1.5.1-1.99,1-1.33,2.26-5.04,8.69-8.84,12.8-8.79,9.51-17.73,13.86-22.4,16.35-.35.19-3.93,2.06-4.2,2.21"/>
    <path class="cls-3" d="m204.65,51.94h0c-3.42-.36-7.32-1.55-10.6-2.72-11.33-3.96-23.14-13.6-23.34-13.75-.31-.22-1-.86-1.3-.78-.29.08-.51.35-.33.67.19.34.49.77.81,1.28,3.48,5.16,8.13,11.47,6.27,20.69-2.27,11.22-13.55,20.86-15.74,22.35-.18.12-.19.44-.07.62.2.29.59.18,1.29-.02,6.44-1.91,20.31-6.49,30.71-13.9,7.46-5.33,10.65-10.12,12.82-13.41.3-.34.11-.95-.54-1.05"/>
    <path class="cls-3" d="m233.32,10.86c.91-.46,1.77-.89,2.15-1.12.33-.18.53-.49.4-.83-.08-.27-.42-.42-.82-.33-.59.13-2.44.59-5.55,1.75-1.75.65-6.7,2.57-10.29,4-8.85,3.47-16.77,7.16-25.38,9.43-3.81,1.02-9.57,2.09-14.64,2.48-4.67.32-9.8-.34-10.94-.65-.56-.15-.83.34-.62.7.14.27.62.99,1.34,1.66,4.82,4.54,7.88,6.5,14.4,10.19,3.71,2.08,10.91,4.84,12.51,5.09.94.14,1.5-.11,2-1,1.31-2.25,5.03-8.69,8.83-12.8,8.8-9.51,17.73-13.86,22.41-16.36.36-.19,3.93-2.05,4.2-2.2"/>
    <path class="cls-3" d="m216.67,32.96h-.01c3.42.33,7.31,1.54,10.61,2.7,11.34,3.95,23.15,13.6,23.34,13.75.3.22,1,.87,1.27.79.29-.08.52-.37.35-.68-.18-.33-.49-.78-.82-1.28-3.47-5.17-8.13-11.45-6.27-20.7,2.28-11.21,13.55-20.84,15.74-22.33.17-.13.19-.44.07-.63-.18-.29-.58-.19-1.29.02-6.44,1.9-20.3,6.47-30.71,13.91-7.46,5.33-10.65,10.11-12.82,13.4-.31.32-.11.96.54,1.06"/>
    <polygon class="cls-1" points="237.53 102.41 250.04 102.41 258.78 136.67 267.24 102.41 279.2 102.41 259.56 166.93 248.7 166.92 253.18 150.54 237.53 102.41"/>
    <path class="cls-1" d="m43.84,95.76c-1.23-.51-2.61-.92-4.14-1.18-1.54-.31-3.06-.45-4.56-.45-3.51,0-6.52.56-8.99,1.65-2.49,1.12-4.51,2.69-6.06,4.71-1.57,2.02-2.71,4.43-3.43,7.25-.72,2.81-1.08,5.87-1.08,9.21,0,3.65.25,7.03.79,10.08.52,3.06,1.48,5.7,2.89,7.88,1.4,2.2,3.36,3.89,5.88,5.09,2.5,1.22,5.74,1.81,9.72,1.81,3.33,0,6.54-.6,9.6-1.85l.19,10.27c-1.89.6-3.86.99-5.88,1.2-2.02.17-3.99.28-5.88.28-5.73,0-10.55-.82-14.39-2.44-3.85-1.64-6.95-3.96-9.29-6.96-2.35-3.01-4.03-6.64-5.01-10.92-.97-4.28-1.48-9.09-1.48-14.44,0-4.49.66-8.75,1.92-12.74,1.27-3.97,3.19-7.46,5.76-10.43,2.6-2.97,5.8-5.3,9.66-7.01,3.85-1.68,8.38-2.55,13.6-2.55,3.32,0,5.94.19,7.83.55,1.9.35,3.48.71,4.8,1.1l-2.45,9.88Z"/>
    <path class="cls-1" d="m73,117.61c-.19-1.43-.57-2.76-1.13-4-.55-1.25-1.34-2.24-2.35-3.02-1-.78-2.33-1.17-3.97-1.17s-2.84.4-3.82,1.24c-.97.8-1.76,1.81-2.34,3.05-.59,1.22-1,2.56-1.22,4-.23,1.43-.34,2.73-.34,3.89h15.47c0-1.25-.11-2.58-.3-3.99m-15.17,11.76c0,4.11.96,7.42,2.88,9.93,1.93,2.51,5.08,3.77,9.45,3.77,1.76,0,3.59-.2,5.48-.63,1.91-.43,3.65-.98,5.21-1.72l1.96,8.33c-2.22.91-4.75,1.54-7.59,1.91-2.85.34-5.44.53-7.79.53-3.86,0-7.13-.68-9.85-2.05-2.71-1.38-4.91-3.23-6.61-5.57-1.7-2.36-2.96-5.08-3.78-8.19-.83-3.09-1.22-6.36-1.22-9.82,0-2.96.38-5.86,1.12-8.76.77-2.91,1.92-5.51,3.49-7.79,1.56-2.28,3.59-4.14,6.07-5.54,2.49-1.4,5.44-2.12,8.91-2.12,3.66,0,6.71.65,9.15,1.93,2.45,1.26,4.42,2.95,5.88,5.07,1.47,2.14,2.51,4.59,3.13,7.41.63,2.79.92,5.81.92,9v4.31h-26.81Z"/>
    <path class="cls-1" d="m116.3,150.61v-32.82c0-2.17-.55-4.01-1.58-5.58-1.04-1.57-2.81-2.36-5.29-2.36-1.43,0-2.66.33-3.67.98-1.02.66-1.84,1.48-2.47,2.51-.61,1.02-1.08,2.15-1.37,3.44-.3,1.27-.44,2.49-.44,3.66v30.19h-11.64v-48.19h10.27l.88,6.45c1.05-2.23,2.71-3.99,4.96-5.32,2.25-1.34,4.95-2.01,8.07-2.01,2.42,0,4.51.41,6.22,1.21,1.73.83,3.17,1.94,4.32,3.3,1.13,1.37,1.98,2.97,2.54,4.83.57,1.87.84,3.83.84,5.93v33.78h-11.63Z"/>
    <path class="cls-1" d="m155.85,151.3c-1.53.13-3.36.18-5.43.18-7.96,0-11.96-4.38-11.96-13.18v-27.29h-6.83v-8.53h6.83v-10.91l11.64-3.35v14.15h9.28v8.64h-9.28v24.53c0,2.74.38,4.64,1.12,5.76.75,1.09,1.97,1.66,3.67,1.66.91,0,1.65-.02,2.26-.04.59-.05,1.31-.22,2.16-.54l.78,7.94c-1.31.52-2.73.83-4.26.97"/>
    <path class="cls-1" d="m191.7,150.61l-.87-6.39c-.99,2.24-2.57,3.99-4.79,5.31-2.22,1.29-4.87,1.95-7.92,1.95-2.43,0-4.48-.39-6.18-1.17-1.69-.78-3.09-1.88-4.19-3.23-1.12-1.37-1.93-3-2.46-4.84-.49-1.89-.76-3.85-.76-5.93v-33.9s11.63,0,11.63,0v32.7c0,2.15.49,3.99,1.45,5.48.98,1.49,2.72,2.25,5.21,2.25,1.36,0,2.54-.31,3.46-.93.97-.61,1.75-1.42,2.36-2.39.62-.98,1.06-2.08,1.33-3.28.26-1.2.39-2.43.39-3.68v-30.16s11.63,0,11.63,0v48.2h-10.27Z"/>
    <path class="cls-1" d="m233.04,112.08c-.97-.24-1.96-.3-2.57-.3-1.76,0-3.12.52-4.19,1.23-1.08.72-1.95,1.66-2.6,2.84-.65,1.18-1.08,2.49-1.33,3.96-.23,1.48-.35,2.96-.35,4.46v26.34s-11.63,0-11.63,0v-48.2h10.56l.87,6.4c1.52-2.57,3.18-4.4,5.05-5.55,1.86-1.15,3.8-1.43,6.49-1.43,1.03,0,2.1.27,2.8.49l-3.1,9.77Z"/>
    <path class="cls-1" d="m232.28,173.07l2.07-8.42h1.15c1.01,0,1.68.15,2.1.43.5.39.82,1.2.82,2.2,0,1.71-.63,3.58-1.57,4.62-.81.88-1.65,1.17-3.33,1.17h-1.25Zm.25-10.47l-3.11,12.52h3.11c3.06,0,4.41-.37,5.78-1.58,1.59-1.41,2.51-3.69,2.51-6.27,0-1.74-.48-2.99-1.5-3.76-.86-.65-2.01-.9-4.2-.9h-2.6Zm-7.54,7.92h-2.99l.75-1.29c1.02-1.93,1.04-1.97,2.13-4.39v.87c0,.74.03,2.65.05,3.46l.06,1.35Zm-.77-7.92l-7.22,12.52h2.57l1.45-2.6h4.03l.13,2.6h2.4l-1-12.52h-2.36Zm-11.59,5.03l.73-2.98h5.17l.51-2.05h-7.51l-3.12,12.52h7.83l.51-2.05h-5.48l.84-3.41h4.94l.49-2.03h-4.92Zm-12.75-.03l1.26-5h-2.35l-3.11,12.52h2.32l1.39-5.53h4.81l-1.37,5.53h2.32l3.14-12.52h-2.35l-1.24,5h-4.82Zm-8.63,2.92h-2.99l.73-1.29c1.03-1.93,1.04-1.97,2.14-4.39v.87c0,.74.04,2.65.06,3.46l.06,1.35Zm-.78-7.92l-7.22,12.52h2.57l1.45-2.6h4.03l.13,2.6h2.4l-.99-12.52h-2.37Zm-16.34,6.26l-.44,1.78h2.42l-.52,2.14c-.57.29-1.48.53-2.24.53-1.86,0-2.85-1.02-2.85-2.91,0-1.39.47-2.97,1.24-4.13.81-1.23,1.76-1.84,2.95-1.84,1.39,0,2.14.77,2.19,2.26h2.14v-.21c0-2.63-1.51-4.11-4.17-4.11-1.69,0-3.19.63-4.37,1.88-1.5,1.54-2.38,3.85-2.38,6.19,0,1.7.45,2.92,1.38,3.74.88.79,2.09,1.2,3.6,1.2s2.9-.4,4.21-1.16l1.34-5.35h-4.49Zm-16.45-6.26l-3.12,12.52h2.2l2.25-9,3.17,9h2.31l3.12-12.52h-2.18l-2.25,9.02-3.04-9.02h-2.46Zm-6.38,12.52l3.13-12.52h-2.34l-3.12,12.52h2.33Zm-10.68-12.52l-3.12,12.52h2.33l3.14-12.52h-2.35Zm6.56,0l-5.65,5.88,2.85,6.64h2.87l-3.12-6.55,5.85-5.97h-2.81Zm-19.75,0l-3.11,12.52h2.2l2.25-9,3.18,9h2.3l3.12-12.52h-2.18l-2.25,9.02-3.04-9.02h-2.46Zm-6.38,12.52l3.13-12.52h-2.34l-3.12,12.52h2.33Zm-10.86-7.52l1.26-5h-2.35l-3.11,12.52h2.32l1.4-5.53h4.8l-1.38,5.53h2.33l3.13-12.52h-2.35l-1.24,5h-4.83Zm-11.47-5l-.64,2.05h3.19l-2.6,10.46h2.33l2.61-10.46h2.91l.64-2.05h-8.45Z"/>
    <path class="cls-1" d="m295,108.91c0,3.63-2.95,6.61-6.59,6.61s-6.61-2.98-6.61-6.59c0-3.7,2.96-6.62,6.69-6.62s6.51,2.99,6.51,6.61m-12.23.02c0,3.16,2.52,5.73,5.64,5.73s5.62-2.55,5.62-5.75c0-3.14-2.53-5.75-5.56-5.75s-5.7,2.55-5.7,5.77Zm4.95-3.82c1.29,0,1.81.07,2.37.31.76.34,1.22,1.07,1.22,1.99,0,1.01-.48,1.7-1.47,2.09l1.97,3.27h-1.57l-1.82-3.03h-1.15v3.03h-1.34v-7.66h1.78Zm.05,3.51c.87,0,1.11-.01,1.44-.13.47-.18.73-.54.73-1.1,0-.47-.2-.8-.59-.98-.34-.17-.57-.19-1.64-.19h-.44v2.4h.49Z"/>
  </g>
  <line class="cls-4" x1="332.13" y1="175.6" x2="332.13" y2="102.73"/>
  <path class="cls-2" d="m431.19,114.65c-8.31,0-15.73,3.91-20.51,9.99-4.1-3.88-9.56-6.08-15.23-6.08h-9.05l.42-3.84h24.18v-2.5h-26.42l-.96,8.84h11.84c5.15,0,10.1,2.05,13.77,5.65-.46.72-.89,1.47-1.28,2.24-3.22-3.41-7.75-5.39-12.48-5.39h-14.97l2.1-13.84h28.41v-2.5h-30.56l-2.86,18.84h17.87c4.41,0,8.6,2.01,11.37,5.41-.37.98-.69,1.98-.94,3-2.13-3.54-6.01-5.91-10.43-5.91h-20.92l3.86-23.83h32.6v-2.5h-34.73l-4.67,28.83h23.86c5.33,0,9.67,4.34,9.67,9.67,0,7.49-6.09,13.58-13.58,13.58s-13.58-6.09-13.58-13.58h-2.5c0,8.86,7.21,16.08,16.08,16.08s16.08-7.21,16.08-16.08c0,0,0,0,0,0h0c0-13,10.58-23.57,23.57-23.57s23.57,10.58,23.57,23.57-10.58,23.57-23.57,23.57c-7.13,0-13.75-3.16-18.26-8.68.5-.72.97-1.47,1.4-2.24,3.97,5.31,10.14,8.43,16.86,8.43,11.62,0,21.08-9.45,21.08-21.08s-9.45-21.08-21.08-21.08-21.08,9.46-21.08,21.08c0,10.24-8.33,18.58-18.58,18.58s-18.58-8.33-18.58-18.58h-2.5c0,11.62,9.46,21.07,21.08,21.07s21.07-9.45,21.07-21.08c0-10.24,8.33-18.58,18.58-18.58s18.58,8.33,18.58,18.58-8.33,18.58-18.58,18.58c-6.36,0-12.16-3.17-15.61-8.5.43-1.02.8-2.08,1.09-3.16,2.59,5.41,8.12,9.16,14.51,9.16,8.87,0,16.08-7.21,16.08-16.08s-7.21-16.08-16.08-16.08-16.08,7.21-16.08,16.08c0,0,0,0,0,0h0c0,13-10.58,23.57-23.57,23.57s-23.58-10.57-23.58-23.57h-2.5c0,14.38,11.7,26.07,26.08,26.07,7.93,0,15.04-3.56,19.83-9.16,4.97,5.84,12.13,9.16,19.83,9.16,14.38,0,26.07-11.7,26.07-26.07s-11.7-26.07-26.07-26.07Zm0,12.49c7.49,0,13.58,6.09,13.58,13.58s-6.09,13.58-13.58,13.58-13.58-6.09-13.58-13.58,6.09-13.58,13.58-13.58Z"/>
  <g>
    <path class="cls-2" d="m420.92,102.36l.07.04,1.46,2,1.46-2,.07-.04h1.06l.04.04-2.14,2.98v2.88l-.04.04h-.9l-.04-.04v-2.88l-2.14-2.98.04-.04h1.06Z"/>
    <path class="cls-2" d="m430.43,102.36l.04.04v.91l-.04.04h-2.8v1.26h2.08l.04.04v.91l-.04.04h-2.08v1.71h2.98l.04.04v.91l-.04.04h-3.93l-.04-.04v-5.86l.04-.04h3.75Z"/>
    <path class="cls-2" d="m435.2,102.36l.04.04,2.32,5.86-.04.04h-1.04l-.04-.04-.49-1.29h-2.42l-.5,1.29-.04.04h-1.04l-.04-.04,2.33-5.86.04-.04h.94Zm-1.33,3.63h1.71l-.86-2.29-.85,2.29Z"/>
    <path class="cls-2" d="m440.77,102.36c1.23,0,2,.76,2,1.73,0,.68-.37,1.22-.95,1.48l1.99,2.69-.04.04h-1.16l-.04-.04-1.83-2.44h-.63v2.44l-.04.04h-.9l-.04-.04v-5.86l.04-.04h1.62Zm-.67,2.48h.67c.55,0,.88-.27.88-.75s-.32-.74-.88-.74h-.67v1.49Z"/>
    <path class="cls-2" d="m447.53,103.7c-.23-.28-.43-.43-.72-.43-.32,0-.52.22-.52.54,0,.78,2.56.76,2.56,2.71,0,1.05-.85,1.91-1.95,1.91-.87,0-1.57-.47-1.87-1.27l.78-.57h.08c.24.56.57.8,1,.8.5,0,.85-.35.85-.88,0-1.12-2.56-1.05-2.56-2.71,0-.9.71-1.58,1.62-1.58.7,0,1.19.35,1.56.91l-.76.56h-.08Z"/>
  </g>
</svg>