<?xml version="1.0" encoding="UTF-8"?>
<svg id="Layer_1" data-name="Layer 1" xmlns="http://www.w3.org/2000/svg" viewBox="0 0 40 40">
  <defs>
    <style>
      .cls-1 {
        fill: #73579b;
        stroke-width: 0px;
      }
    </style>
  </defs>
  <path class="cls-1" d="m33.81,14.76l-2.8,1.03v7.65c-.12.65-1.67,1.7-2.24,2.03-4.59,2.64-13.85,2.65-18.47.08-.75-.42-2.26-1.44-2.37-2.34l-.02-7.61-6.7-2.44c-.92-.47-.85-1.62.03-2.08l18.4-6.6c6.23,2.04,12.35,4.44,18.53,6.62.62.37.82,1.11.39,1.71-.39.55-2.39.88-2.48,1.16v10.15s3.02,3.11,3.02,3.11c.43.58.4,1.07-.04,1.63-.78,1.01-2.13,1.95-2.96,2.96-.25,1.07.57,3.53-1.1,3.68-1.79.16-1.05-2.68-1.26-3.68-.85-1.02-2.16-1.94-2.96-2.96-.31-.39-.44-.7-.29-1.2.24-.81,2.71-2.64,3.29-3.47v-9.45Zm.46-2.58l-.19-.15-14.35-5.16-14.68,5.28,14.39,5.33,14.82-5.29Zm-5.54,4.4l-9.3,3.26-9.22-3.34v6.18c.51.5,1.19.9,1.85,1.19,3.98,1.76,11.52,1.79,15.38-.28.45-.24.93-.55,1.29-.91v-6.11Zm6.22,9.74l-1.71,1.71,1.71,1.71,1.71-1.71-1.71-1.71Z"/>
</svg>