<?xml version="1.0" encoding="UTF-8"?>
<svg id="Layer_1" data-name="Layer 1" xmlns="http://www.w3.org/2000/svg" viewBox="0 0 35 40">
  <defs>
    <style>
      .cls-1 {
        fill: #ec1c24;
        stroke-width: 0px;
      }
    </style>
  </defs>
  <g id="_6nblze" data-name="6nblze">
    <g>
      <path class="cls-1" d="m33.02,20c0,8.57-6.95,15.52-15.52,15.52S1.98,28.57,1.98,20s6.95-15.52,15.52-15.52,15.52,6.95,15.52,15.52Zm-1.88,0c0-7.54-6.11-13.64-13.65-13.64S3.85,12.46,3.85,20s6.11,13.64,13.65,13.64,13.65-6.11,13.65-13.64Z"/>
      <path class="cls-1" d="m21.21,16.29h2.57c.98,0,1.6.81,1.66,1.72.08,1.08.09,2.97,0,4.04-.05.64-.43,1.33-1.07,1.53-.1.03-.52.13-.59.13h-2.57v2.57c0,.98-.81,1.6-1.72,1.66-1.08.08-2.97.09-4.04,0-.64-.05-1.33-.43-1.53-1.07-.03-.1-.13-.52-.13-.59v-2.57h-2.57c-.98,0-1.6-.81-1.66-1.72-.08-1.08-.09-2.97,0-4.04.05-.64.43-1.33,1.07-1.53.1-.03.52-.13.59-.13h2.57v-2.64c0-.89.84-1.53,1.66-1.6,1.06-.09,3.05-.09,4.11,0,.6.05,1.26.39,1.5.98.05.13.16.57.16.68v2.57Zm-1.89-2.34h-3.65v3.55c0,.21-.47.68-.68.68h-3.55v3.65h3.55c.21,0,.68.47.68.68v3.55h3.65v-3.55c0-.21.47-.68.68-.68h3.55v-3.65h-3.55c-.21,0-.68-.47-.68-.68v-3.55Z"/>
    </g>
  </g>
</svg>