<?xml version="1.0" encoding="UTF-8"?>
<svg id="Layer_1" data-name="Layer 1" xmlns="http://www.w3.org/2000/svg" viewBox="0 0 35 40">
  <defs>
    <style>
      .cls-1 {
        fill: #73579b;
        stroke-width: 0px;
      }
    </style>
  </defs>
  <g id="_0cJ1ce" data-name="0cJ1ce">
    <g>
      <path class="cls-1" d="m26.9,14.68l3.7.76.41.44v18.19c.86.09,1.09,1.15.24,1.45H3.73c-.8-.32-.61-1.32.24-1.45V13.62c.05-.29.26-.47.53-.56.83-.3,2-.32,2.86-.57v-5.61c.1-.47.19-.67.66-.8,2.59-.75,5.65-.94,8.3-1.6l10.18,2.14c.22.13.38.37.41.62v7.43ZM15.55,6.12l-6.74,1.27v4.8l3.37-.61,3.37.67v-6.13Zm9.89,8.19v-6.4l-8.44-1.79v6.4l8.44,1.79Zm-14.08,1.34v-2.49l-5.95,1.15v19.79h5.95v-5.83l-4.58.91c-.9.17-1.13-.96-.26-1.17l4.84-1.01v-2.55l-4.76.97c-.77-.08-.85-.98-.1-1.2l4.87-.99v-2.61l-4.64.97c-.68.15-1-.75-.41-1.08l5.06-1.1v-2.55l-4.77.97c-.67-.05-.83-.93-.2-1.17l4.96-1.01Zm18.21,1.03l-16.75-3.46v2.34l16.75,3.55v-2.43Zm0,6.25v-2.52l-16.75-3.55v2.55l16.75,3.52Zm0,1.21l-16.75-3.46v2.46l16.75,3.55v-2.55Zm0,3.76l-16.75-3.46v2.55l16.75,3.52v-2.61Zm0,3.82l-16.75-3.46v5.83h16.75v-2.37Z"/>
      <path class="cls-1" d="m18.51,9.11c.09-.02.19-.03.28,0,1.52.51,3.73.52,5.17,1.08.69.27.47,1.19-.24,1.16l-5.19-1.06c-.64-.16-.64-1.05-.02-1.17Z"/>
    </g>
  </g>
</svg>