<?xml version="1.0" encoding="UTF-8"?>
<svg id="Layer_1" data-name="Layer 1" xmlns="http://www.w3.org/2000/svg" viewBox="0 0 35 40">
  <defs>
    <style>
      .cls-1 {
        fill: #334290;
        stroke-width: 0px;
      }
    </style>
  </defs>
  <g id="_34Xhip" data-name="34Xhip">
    <g>
      <path class="cls-1" d="m24.01,10.02c2.22-.09,4.65-.22,5.49,2.3l2.75,17.2c.21,3.12-2.05,5.73-5.16,5.99H7.9c-3.1-.26-5.37-2.88-5.16-6l2.66-16.81c.2-.93.75-1.75,1.58-2.23,1.24-.72,2.64-.38,4.01-.46.22-1.83,1.44-3.57,2.99-4.53,4.03-2.51,9.32-.12,10.04,4.53Zm-2.22,0c-1.26-4.41-7.33-4.4-8.59,0h8.59Zm-13.32,2.23c-.41.1-.77.36-.88.79-.85,5.77-1.98,11.52-2.63,17.3.21,1.59,1.47,2.81,3.07,2.96h18.92c1.62-.15,2.89-1.4,3.08-3.02-.7-5.8-1.78-11.57-2.67-17.35-.18-.42-.58-.67-1.04-.7l-17.86.02Z"/>
      <path class="cls-1" d="m11.73,14.48c.59-.1,1.22.25,1.32.87.16.95.05,1.42.56,2.35,1.95,3.57,7.38,2.8,8.22-1.15.17-.79-.06-2,1.11-2.08,1.81-.13,1.16,2.49.78,3.48-2.06,5.41-9.71,5.73-12.21.53-.45-.93-1.34-3.75.22-4Z"/>
    </g>
  </g>
</svg>