<?xml version="1.0" encoding="UTF-8"?>
<svg id="Layer_1" data-name="Layer 1" xmlns="http://www.w3.org/2000/svg" viewBox="0 0 60 40">
  <defs>
    <style>
      .cls-1 {
        fill: #37b34a;
        stroke-width: 0px;
      }
    </style>
  </defs>
  <g id="xepVXe">
    <g>
      <path class="cls-1" d="m43.86,27.65c-3.28-.94-5.88-3.4-7.37-6.43l-5.95,5.94c-.63.55-1.4-.22-.85-.85l6.31-6.31c.05-.12-.27-1.25-.32-1.5-1.42-7.78,4.99-14.76,12.87-13.96,4.76.48,8.87,3.91,10.18,8.5,2.41,8.47-4.81,16.42-13.42,14.99l-4.98,4.91c-.68.23-1.13-.49-.65-1.02l4.11-4.13.06-.15Zm5.88-21.71c-1.7-.31-3.49-.38-5.15.15l2.71,1.66,2.45-1.81Zm4.66,7.57l.56-4.5c-.43-.58-1.1-1.11-1.71-1.51-.31-.21-1.75-1.04-2.02-1.01l-3.19,2.27-.06,3.22.07.18,2.95,2.14,3.41-.79Zm-7.7-4.7l-3.61-2.18c-1.34.57-2.63,1.43-3.54,2.57l.68,4.32,3.46.76,2.96-2.12.06-.18-.02-3.18Zm11.29,7.39c-.03-2.14-.72-4.19-1.91-5.94-.08.06-.08.12-.09.21-.15,1.1-.23,2.22-.35,3.32.69.88,1.55,1.63,2.35,2.41Zm-21.29,0l2.35-2.41-.54-3.35-.78,1.31c-.65,1.39-1.02,2.91-1.04,4.45Zm12.36,2.3l1.01-3.32-2.74-1.99-2.78,1.99,1.06,3.31,3.45.02Zm-5.71-3.01l-3.45-.77-3.03,3.03c-.08.09-.06.19-.05.3.08,1.1.71,2.42,1.16,3.42l4.22.85.16-.05,2.09-3.25-1.11-3.53Zm13.28,6.04c.35-.66.66-1.34.88-2.06.11-.36.34-1.15.35-1.48,0-.07,0-.12-.05-.18l-3.03-3.09-3.45.77-1.11,3.53,2.09,3.25.17.04,4.16-.79Zm-7.4-1.79h-3.8s-2.11,3.26-2.11,3.26l2.21,3.85c1.18.21,2.4.21,3.58,0l2.18-3.82-2.07-3.29Zm-5.39,6.66l-1.6-2.79-3.25-.66c1.22,1.59,2.94,2.83,4.85,3.46Zm11.83-3.46l-3.26.62-1.59,2.84c1.92-.62,3.62-1.87,4.85-3.46Z"/>
      <path class="cls-1" d="m36.87,26.14c.61-.06.89.75.41,1.14l-7.98,7.97c-.5.56-1.32.15-1.11-.56,2.62-2.84,5.47-5.49,8.17-8.27.13-.11.33-.27.5-.29Z"/>
      <circle class="cls-1" cx="38.23" cy="34.26" r=".6"/>
    </g>
  </g>
  <path class="cls-1" d="m4.25,30.35v-2.3h5.75v-5.75L.8,11.95v-2.3h20.69v2.3l-9.2,10.35v5.75h5.75v2.3H4.25Zm1.67-16.1h10.46l2.07-2.3H3.84l2.07,2.3Zm5.23,5.86l3.19-3.56h-6.38l3.19,3.56Z"/>
</svg>