<svg version="1.2" xmlns="http://www.w3.org/2000/svg" viewBox="0 0 252 163" width="252" height="163">
	<title>New Project</title>
	<style>
		.s0 { fill: #fefefe } 
	</style>
	<path id="&lt;Path&gt;" fill-rule="evenodd" class="s0" d="m154.6 64.5c-0.7 0.4-1.3 0.7-1.6 0.9-0.3 0.1-0.5 0.4-0.4 0.6 0.1 0.2 0.4 0.3 0.7 0.3 0.4-0.1 1.9-0.5 4.3-1.4 1.3-0.5 5.1-2 7.9-3 6.8-2.7 12.9-5.6 19.5-7.3 2.9-0.8 7.4-1.6 11.3-1.9 3.6-0.3 7.5 0.3 8.4 0.5 0.4 0.1 0.6-0.3 0.5-0.6-0.1-0.2-0.5-0.7-1-1.2-3.8-3.5-6.1-5-11.1-7.9-2.9-1.6-8.4-3.7-9.7-3.9-0.7-0.1-1.1 0.1-1.5 0.8-1 1.7-3.9 6.7-6.8 9.8-6.8 7.4-13.7 10.7-17.3 12.6-0.2 0.2-3 1.6-3.2 1.7zm12.8-17c-2.6-0.3-5.6-1.2-8.1-2.1-8.7-3-17.8-10.4-18-10.6-0.2-0.1-0.8-0.6-1-0.6-0.2 0.1-0.4 0.3-0.2 0.6 0.1 0.2 0.3 0.6 0.6 0.9 2.7 4 6.3 8.9 4.8 16-1.7 8.6-10.4 16-12.1 17.2-0.1 0.1-0.1 0.3-0.1 0.5 0.2 0.2 0.5 0.1 1-0.1 5-1.4 15.7-4.9 23.7-10.7 5.7-4.1 8.2-7.7 9.9-10.3 0.2-0.2 0-0.7-0.5-0.8zm22.1-31.6c0.7-0.4 1.4-0.7 1.7-0.9 0.2-0.1 0.4-0.3 0.3-0.6-0.1-0.2-0.4-0.3-0.7-0.3-0.4 0.1-1.8 0.5-4.2 1.4-1.4 0.5-5.2 2-8 3.1-6.8 2.6-12.9 5.5-19.5 7.2-2.9 0.8-7.4 1.6-11.3 1.9-3.6 0.3-7.5-0.2-8.4-0.5-0.4-0.1-0.6 0.3-0.5 0.6 0.1 0.2 0.5 0.7 1.1 1.3 3.7 3.5 6 5 11.1 7.8 2.8 1.6 8.4 3.7 9.6 3.9 0.7 0.1 1.1-0.1 1.5-0.8 1-1.7 3.9-6.7 6.8-9.8 6.8-7.3 13.7-10.7 17.3-12.6 0.3-0.2 3-1.6 3.2-1.7zm-12.8 17c2.6 0.3 5.6 1.2 8.1 2.1 8.8 3 17.9 10.5 18 10.6 0.2 0.1 0.8 0.6 1 0.6 0.2-0.1 0.4-0.3 0.3-0.5-0.2-0.3-0.4-0.6-0.7-1-2.6-4-6.2-8.8-4.8-16 1.8-8.6 10.4-16 12.1-17.2 0.2-0.1 0.2-0.3 0.1-0.4-0.2-0.3-0.5-0.2-1 0-5 1.4-15.6 5-23.7 10.7-5.7 4.1-8.1 7.8-9.8 10.3-0.3 0.2-0.1 0.7 0.4 0.8zm16.1 53.5h9.6l6.7 26.4 6.5-26.4h9.2l-15.1 49.6h-8.3l3.4-12.6zm-149.1-5.1q-1.4-0.6-3.2-0.9-1.8-0.4-3.5-0.3-4.1 0-6.9 1.2-2.9 1.3-4.7 3.6-1.8 2.4-2.6 5.6-0.9 3.3-0.9 7.1 0 4.2 0.6 7.8 0.6 3.5 2.3 6 1.6 2.6 4.5 4 2.9 1.4 7.5 1.4 3.8 0 7.4-1.5l0.1 7.9q-2.2 0.7-4.5 1-2.3 0.2-4.5 0.2-6.7 0-11.1-1.9-4.5-1.9-7.2-5.4-2.7-3.4-3.8-8.4-1.1-4.9-1.2-11.1 0.1-5.2 1.5-9.8 1.5-4.6 4.5-8 3-3.4 7.4-5.4 4.4-2 10.5-2 3.8 0 6 0.5 2.2 0.3 3.7 0.8zm10.7 25.9q0 4.7 2.3 7.6 2.2 2.9 7.2 2.9 2.1 0 4.3-0.5 2.2-0.5 4-1.3l1.5 6.4q-2.6 1.1-5.9 1.5-3.3 0.4-6 0.4-4.4 0-7.5-1.6-3.2-1.6-5.1-4.3-2-2.7-2.9-6.3-1-3.5-1-7.5 0-3.4 0.9-6.8 0.9-3.3 2.7-6 1.8-2.6 4.6-4.2 2.9-1.7 6.9-1.7 4.2 0 7 1.5 2.9 1.5 4.6 3.9 1.7 2.5 2.4 5.7 0.7 3.3 0.7 7v3.3zm11.7-9.1q-0.3-1.6-0.9-3.1-0.6-1.4-1.8-2.3-1.2-0.9-3.1-0.9-1.8 0-2.9 1-1.1 0.9-1.8 2.3-0.7 1.4-0.9 3.1-0.3 1.6-0.3 3h11.9q0-1.5-0.2-3.1zm33.3 25.4v-25.2q0-2.5-1.2-4.3-1.2-1.9-4.1-1.9-1.6 0-2.8 0.8-1.2 0.7-1.9 1.9-0.7 1.2-1.1 2.7-0.3 1.4-0.3 2.8v23.2h-9v-37.1h7.9l0.7 5q1.2-2.6 3.8-4.1 2.6-1.5 6.2-1.5 2.9 0 4.8 0.9 2 1 3.4 2.5 1.3 1.6 1.9 3.8 0.7 2.1 0.7 4.5v26zm30.4 0.6q-1.8 0.1-4.2 0.1-9.2 0-9.2-10.2v-21h-5.2v-6.5h5.2v-8.4l9-2.6v10.9h7.1v6.6h-7.1v18.9q0 3.2 0.9 4.5 0.8 1.2 2.8 1.2 1 0 1.7 0 0.7 0 1.7-0.4l0.6 6.1q-1.5 0.6-3.3 0.8zm27.6-0.6l-0.7-4.9q-1.1 2.6-3.7 4.1-2.5 1.5-6.1 1.5-2.8 0-4.7-0.9-2-0.9-3.2-2.5-1.3-1.6-1.9-3.7-0.6-2.2-0.6-4.6v-26.1h8.9v25.2q0 2.5 1.1 4.2 1.2 1.7 4 1.7 1.6 0 2.7-0.7 1.1-0.7 1.8-1.8 0.7-1.1 1.1-2.5 0.3-1.4 0.3-2.9l-0.1-23.2h9v37.1zm31.8-29.6c-0.7-0.2-1.5-0.3-1.9-0.3-1.4 0-2.5 0.4-3.3 1q-1.2 0.8-2 2.2-0.7 1.3-1 3-0.3 1.7-0.3 3.4v20.3h-8.9v-37.1h8.1l0.7 4.9c1.2-1.9 2.4-3.3 3.9-4.2 1.4-0.9 2.9-1.1 5-1.1 0.8 0 1.6 0.2 2.1 0.3zm-103.4 38.9l-0.5 1.6h2.5l-2 8.1h1.8l2-8.1h2.2l0.5-1.6zm8.9 3.9l0.9-3.9h-1.8l-2.4 9.7h1.8l1.1-4.3h3.7l-1.1 4.3h1.8l2.4-9.7h-1.8l-0.9 3.9zm8.3 5.8l2.5-9.7h-1.8l-2.4 9.7zm4.9-9.7l-2.4 9.7h1.7l1.7-7 2.4 7h1.8l2.4-9.7h-1.7l-1.7 7-2.3-7zm15.2 0l-4.4 4.6 2.2 5.1h2.2l-2.4-5.1 4.5-4.6zm-5 0l-2.4 9.7h1.8l2.4-9.7zm8.2 9.7l2.4-9.7h-1.8l-2.4 9.7zm4.9-9.7l-2.4 9.7h1.7l1.7-7 2.5 7h1.8l2.4-9.7h-1.7l-1.7 7-2.4-7zm12.7 4.9l-0.4 1.3h1.9l-0.4 1.7c-0.4 0.2-1.1 0.4-1.7 0.4-1.5 0-2.2-0.8-2.2-2.3 0-1 0.3-2.2 0.9-3.1 0.7-1 1.4-1.5 2.3-1.5 1.1 0 1.7 0.6 1.7 1.8h1.6v-0.2c0-2-1.1-3.1-3.2-3.1-1.3 0-2.4 0.4-3.3 1.4-1.2 1.2-1.9 3-1.9 4.8q0 1.9 1.1 2.8 1 1 2.8 1 1.7 0 3.2-0.9l1-4.1zm12.6-4.9l-5.6 9.7h2l1.1-2h3.1l0.1 2h1.9l-0.8-9.7zm0.6 6.1h-2.3l0.6-1c0.8-1.4 0.8-1.5 1.6-3.3v0.6c0 0.6 0.1 2.1 0.1 2.7zm6.6-2.3l1-3.8h-1.8l-2.4 9.6h1.8l1.1-4.2h3.7l-1.1 4.2h1.8l2.4-9.6h-1.8l-1 3.8zm9.9 0.1l0.5-2.3h4l0.4-1.6h-5.8l-2.4 9.6h6l0.4-1.5h-4.2l0.7-2.7h3.8l0.4-1.5zm8.9-3.9l-5.6 9.6h2l1.1-2h3.1l0.1 2h1.9l-0.8-9.6zm0.6 6.1h-2.3l0.6-1c0.7-1.5 0.8-1.5 1.6-3.4v0.7c0 0.6 0 2 0 2.6zm5.9-6l-2.4 9.6h2.4c2.3 0 3.3-0.3 4.4-1.2 1.2-1.1 1.9-2.9 1.9-4.9q0-2-1.1-2.9c-0.7-0.5-1.6-0.6-3.3-0.6zm-0.2 8l1.6-6.5h0.9c0.8 0 1.3 0.1 1.6 0.4 0.4 0.3 0.7 0.9 0.7 1.7 0 1.3-0.5 2.7-1.2 3.5-0.7 0.7-1.3 0.9-2.6 0.9zm43.2-44.3c-2.8 0-5.1-2.3-5.1-5.1 0-2.8 2.3-5.1 5.1-5.1 2.8 0 5.1 2.3 5.1 5.1 0 2.8-2.3 5.1-5.1 5.1zm0-0.7c-2.4 0-4.3-1.9-4.3-4.4 0-2.4 1.9-4.4 4.3-4.4 2.4 0 4.4 2 4.4 4.4 0 2.5-2 4.4-4.4 4.4zm-0.5-7.3c1 0 1.4 0 1.8 0.2 0.6 0.3 1 0.9 1 1.6q0 1.1-1.2 1.6l1.5 2.5h-1.2l-1.4-2.3h-0.8v2.3h-1.1v-5.9zm0.1 2.7c0.6 0 0.8 0 1.1-0.1q0.5-0.2 0.5-0.9 0-0.5-0.4-0.7c-0.3-0.1-0.5-0.2-1.3-0.2h-0.3v1.9z"/>
</svg>