<svg version="1.2" xmlns="http://www.w3.org/2000/svg" viewBox="0 0 262 288" width="262" height="288">
	<style>
		.s0 { fill: #c775aa } 
		.s1 { fill: #73579b } 
		.s2 { fill: #f1e1ee } 
	</style>
	<g id="Folder 1">
		<g style="opacity: .15">
			<path class="s0" d="m100.39 162.48c2.9-4.11 9.37-7.85 14.38-8.3l126.58-11.54c5-0.46 5.54 1.22 1.18 3.74l-212.78 122.85c-4.35 2.51-5.54 1.21-2.65-2.9z"/>
			<path class="s0" d="m78.96 133.5c2.11 4.57 2.11 12.04 0 16.61l-53.3 115.39c-2.11 4.56-3.83 4.18-3.83-0.85v-245.69c0-5.03 1.72-5.41 3.83-0.84z"/>
			<path class="s0" d="m27.1 17.29c-2.89-4.11-1.7-5.42 2.65-2.9l212.78 122.85c4.36 2.51 3.82 4.19-1.18 3.74l-126.58-11.54c-5.01-0.46-11.48-4.19-14.38-8.3z"/>
		</g>
		<g>
			<path class="s1" d="m101.19 164.42c2.95-4.18 9.54-7.99 14.64-8.45l128.95-11.76c5.11-0.46 5.65 1.25 1.21 3.81l-216.77 125.15c-4.44 2.56-5.65 1.23-2.7-2.95 0 0 74.66-105.8 74.67-105.8z"/>
			<path class="s1" d="m79.36 134.9c2.15 4.65 2.15 12.26 0 16.91l-54.29 117.56c-2.15 4.65-3.91 4.26-3.91-0.86v-250.3c0-5.12 1.76-5.51 3.91-0.85l54.29 117.55z"/>
			<path class="s1" d="m26.53 16.5c-2.95-4.18-1.74-5.51 2.7-2.95l216.77 125.15c4.44 2.56 3.89 4.27-1.21 3.81l-128.95-11.76c-5.1-0.46-11.69-4.27-14.65-8.45z"/>
			<g>
				<path class="s2" d="m106.37 86.81l-1.42-0.82 2.21-6.05-0.21-0.12-4.13 4.92-1.44-0.83 2.26-6.29 0.72 0.42-1.9 5.42-0.4 0.57 0.21 0.12 4.15-4.91 1.5 0.87-2.23 6.03 0.21 0.13 0.32-0.62 3.75-4.35 0.72 0.42-4.34 5.08z"/>
				<path class="s2" d="m111.54 81.9l0.72 0.42-1.51 2.59-0.4 0.41 0.21 0.12c0.6-0.63 1.42-0.82 2.29-0.32 0.91 0.53 1.11 1.45 0.48 2.53l-1.4 2.41-0.71-0.42 1.36-2.32c0.48-0.82 0.35-1.33-0.33-1.73-0.87-0.5-1.81-0.13-2.44 0.96l-0.99 1.7-0.71-0.42 3.44-5.92z"/>
				<path class="s2" d="m113.19 89.97l1.11 0.64 1.62-2.78-0.83-0.48 0.36-0.61 1.04 0.61c0.29 0.17 0.37 0.4 0.18 0.73l-1.7 2.92 1.11 0.66-0.35 0.61-2.89-1.69c0 0 0.35-0.61 0.35-0.61zm4.36-4.37c0.32 0.19 0.45 0.56 0.26 0.88-0.18 0.32-0.57 0.39-0.89 0.2-0.31-0.18-0.43-0.55-0.25-0.86 0.18-0.32 0.57-0.4 0.88-0.21z"/>
				<path class="s2" d="m118.81 94.06l-1.57-0.91q-0.57-0.32-0.24-0.89l1.65-2.83-0.89-0.52 0.36-0.61 0.88 0.52 0.59-1.02 0.85 0.2-0.72 1.23 1.26 0.73-0.35 0.61-1.26-0.73-1.62 2.79 1.42 0.81-0.36 0.61z"/>
				<path class="s2" d="m123.66 91.42c1.19 0.69 1.54 1.85 0.82 3.09l-0.15 0.26-3.18-1.85c-0.43 0.79-0.37 1.63 0.46 2.11 0.69 0.4 1.3 0.28 1.76-0.2l0.7 0.42c-0.59 0.64-1.55 1.07-2.79 0.36-1.3-0.76-1.41-2.09-0.72-3.28 0.76-1.3 1.96-1.58 3.1-0.91zm0.26 2.44c0.38-0.76 0.13-1.46-0.59-1.88-0.66-0.39-1.41-0.26-1.88 0.44z"/>
				<path class="s2" d="m127.98 93.37l-0.29 0.5 2.42 1.42c0.38 0.22 0.45 0.48 0.22 0.86l-1.65 2.84 1.11 0.64-0.36 0.62-5.66-3.3 0.36-0.61 0.88 0.51 1.62-2.78-0.88-0.51 0.35-0.61 0.88 0.51 0.3-0.51c0.49-0.84 1.23-1.16 2.22-0.59l1.8 1.04-0.36 0.62-1.82-1.07c-0.51-0.3-0.84-0.09-1.13 0.42zm-0.02 5.2l1.62-2.78-2.25-1.31-1.62 2.78z"/>
				<path class="s2" d="m134.19 97.55c1.19 0.68 1.54 1.85 0.82 3.09l-0.15 0.26-3.18-1.86c-0.43 0.8-0.37 1.63 0.46 2.12 0.69 0.4 1.3 0.28 1.76-0.2l0.7 0.42c-0.59 0.64-1.55 1.07-2.79 0.36-1.3-0.76-1.41-2.09-0.72-3.28 0.76-1.3 1.96-1.58 3.1-0.91zm0.26 2.44c0.38-0.76 0.13-1.46-0.59-1.88-0.66-0.39-1.4-0.26-1.88 0.44z"/>
				<path class="s2" d="m134.68 102.48l1.12 0.65 2.73-4.69-0.84-0.49 0.36-0.61 1.13 0.66q0.41 0.24 0.19 0.65l-2.86 4.9 1.12 0.66-0.36 0.61-2.95-1.73c0 0 0.35-0.61 0.36-0.61z"/>
				<path class="s2" d="m138.87 103.05c0.68-1.18 1.94-1.65 3.11-0.97 0.92 0.54 1.16 1.34 0.97 2.06l0.21 0.12 0.15-0.55 1.44-2.47 0.71 0.41-3.45 5.92-0.71-0.41 0.32-0.56 0.41-0.41-0.21-0.12c-0.54 0.52-1.35 0.71-2.27 0.18-1.16-0.68-1.37-2.01-0.68-3.2zm1.27 2.71c0.81 0.48 1.73 0.42 2.33-0.61 0.6-1.03 0.19-1.85-0.62-2.32-0.81-0.47-1.66-0.39-2.26 0.64-0.6 1.04-0.26 1.82 0.55 2.29z"/>
			</g>
			<g>
				<path class="s2" d="m114.67 199.07c-1.69 1.06-3.05 0.82-3.93-0.57l0.73-0.45c0.67 1.06 1.61 1.18 2.83 0.41 0.97-0.61 1.22-1.2 0.84-1.81-0.27-0.43-0.77-0.59-1.52-0.34l-1.81 0.57c-1.02 0.32-1.7 0.04-2.11-0.62-0.61-0.96-0.23-1.91 1.05-2.72 1.51-0.95 2.77-0.72 3.52 0.48l-0.73 0.46q-0.84-1.32-2.41-0.33c-0.81 0.51-1.07 1.06-0.72 1.62 0.25 0.4 0.68 0.55 1.38 0.33l1.78-0.58c1.05-0.34 1.82-0.09 2.28 0.64 0.62 0.99 0.31 1.99-1.17 2.92z"/>
				<path class="s2" d="m117.41 194.12l1.44-1.11c-0.47-0.7-1.01-0.83-1.71-0.4-0.54 0.34-0.79 0.85-0.44 1.55l-0.7 0.44c-0.47-0.95-0.23-1.91 0.78-2.55 1.15-0.72 2.2-0.4 2.85 0.63l1.05 1.67 0.58-0.36 0.38 0.6-0.72 0.45c-0.3 0.19-0.59 0.13-0.78-0.17l-0.11-0.19-0.16-0.49-0.2 0.13c0.23 0.69 0.16 1.51-0.79 2.11-1.15 0.73-1.8 0.07-2.06-0.33-0.39-0.63-0.28-1.3 0.59-1.97zm1.22 1.65c0.85-0.53 1.04-1.48 0.54-2.27l-1.33 1.04c-0.45 0.35-0.62 0.64-0.38 1.02 0.29 0.45 0.72 0.5 1.17 0.21z"/>
				<path class="s2" d="m120.46 189.85l2.21-1.4 0.38 0.6-2.07 1.3 2.08 3.32-0.7 0.45-2.12-3.38q-0.35-0.55 0.21-0.89z"/>
				<path class="s2" d="m123.14 185.75c0.32-0.2 0.71-0.13 0.91 0.17 0.19 0.31 0.08 0.69-0.24 0.89-0.31 0.19-0.69 0.12-0.89-0.18-0.19-0.31-0.08-0.68 0.22-0.88zm3.04 5.41l-1.83-2.92-0.83 0.52-0.38-0.6 1.03-0.64c0.32-0.2 0.57-0.2 0.78 0.13l2.01 3.2c0.16 0.26 0.22 0.41 0.24 0.72l0.13 1.53-0.76 0.47-0.14-1.68c-0.01-0.31-0.08-0.47-0.24-0.73z"/>
				<path class="s2" d="m127.99 187.47l1.45-1.12c-0.48-0.69-1.02-0.82-1.71-0.39-0.54 0.34-0.79 0.85-0.45 1.55l-0.69 0.44c-0.47-0.95-0.24-1.91 0.77-2.55 1.15-0.72 2.2-0.4 2.86 0.63l1.04 1.67 0.58-0.37 0.38 0.61-0.72 0.44c-0.3 0.19-0.59 0.13-0.77-0.17l-0.12-0.19-0.16-0.49-0.2 0.13c0.23 0.69 0.16 1.51-0.79 2.11-1.15 0.73-1.8 0.08-2.06-0.33-0.39-0.63-0.28-1.29 0.59-1.97zm1.22 1.66c0.85-0.54 1.03-1.49 0.53-2.28l-1.32 1.05c-0.46 0.35-0.62 0.64-0.38 1.02 0.28 0.44 0.72 0.49 1.17 0.21z"/>
				<path class="s2" d="m130.48 183.55l0.7-0.44 0.35 0.54 0.17 0.54 0.2-0.12c-0.22-0.71 0-1.52 0.9-2.08 1.14-0.72 2.41-0.3 3.14 0.87 0.73 1.15 0.56 2.48-0.58 3.2-0.9 0.57-1.72 0.4-2.27-0.1l-0.2 0.12 0.42 0.4 1.3 2.08-0.7 0.44-3.43-5.45zm4.28 2.06c0.8-0.51 1.11-1.32 0.49-2.31-0.63-1.01-1.5-1.08-2.3-0.58-0.8 0.5-1.17 1.33-0.53 2.35 0.64 1.01 1.54 1.03 2.34 0.54z"/>
				<path class="s2" d="m137.07 182.73l-1.5-2.38 0.71-0.44 1.43 2.28c0.51 0.81 1.01 0.93 1.69 0.51 0.81-0.51 0.99-1.5 0.32-2.57l-1.07-1.71 0.69-0.44 2.46 3.93-0.69 0.43-0.42-0.66-0.18-0.53-0.18 0.12c0.28 0.81 0.1 1.61-0.75 2.15-0.9 0.57-1.82 0.4-2.51-0.69z"/>
				<path class="s2" d="m140.89 177.02l2.21-1.39 0.38 0.6-2.07 1.29 2.09 3.33-0.71 0.44-2.12-3.38q-0.34-0.55 0.21-0.89z"/>
			</g>
			<g>
				<path class="s2" d="m38.9 165.68h0.72v1.47h5.12v-1.47h0.72v3.79h-0.72v-1.48h-5.12v1.47h-0.72z"/>
				<path class="s2" d="m40.84 164.61v-0.83h0.77l0.56 0.14v-0.23c-0.83-0.19-1.42-0.78-1.42-1.78 0-1.06 0.62-1.74 1.92-1.74h2.81v0.82h-2.69c-0.96 0-1.32 0.37-1.32 1.15 0 0.97 0.73 1.64 1.98 1.64h2.03v0.83h-4.63z"/>
				<path class="s2" d="m43.15 159.14c-1.37 0-2.4-0.86-2.4-2.2 0-1.07 0.56-1.67 1.28-1.88v-0.23l-0.55 0.14h-2.86v-0.82h6.85v0.83h-0.64l-0.56-0.14v0.23c0.71 0.2 1.29 0.81 1.29 1.87 0 1.35-1.04 2.2-2.42 2.2zm1.71-2.46c0-0.94-0.51-1.71-1.7-1.71-1.19 0-1.7 0.77-1.7 1.71 0 0.94 0.51 1.63 1.7 1.63 1.19 0 1.71-0.68 1.71-1.62z"/>
				<path class="s2" d="m38.81 151.54c0-0.38 0.26-0.67 0.62-0.67 0.36 0 0.62 0.3 0.62 0.67 0 0.36-0.26 0.65-0.62 0.65-0.36 0-0.62-0.29-0.62-0.65zm5.96 1.57v-1.29h-3.22v0.96h-0.71v-1.2c0-0.34 0.16-0.53 0.55-0.53h3.38v-1.29h0.71v3.35z"/>
				<path class="s2" d="m40.85 148.15v-2.62h0.71v2.45h3.92v0.82h-3.99q-0.64 0.01-0.64-0.65z"/>
				<path class="s2" d="m42.84 143.54l-0.17-1.81c-0.84 0.03-1.24 0.42-1.24 1.23 0 0.64 0.29 1.13 1.07 1.21v0.82c-1.06-0.1-1.74-0.81-1.74-2.02 0-1.35 0.83-2.07 2.05-2.07h1.97v-0.68h0.71v0.85c0 0.35-0.21 0.56-0.56 0.56h-0.23l-0.49-0.13v0.23c0.71 0.18 1.37 0.67 1.37 1.8 0 1.36-0.9 1.57-1.38 1.57-0.74 0-1.25-0.45-1.35-1.55zm2.05-0.15c0-1-0.71-1.67-1.64-1.67l0.17 1.68c0.06 0.57 0.22 0.87 0.67 0.87 0.53 0 0.8-0.35 0.8-0.87z"/>
				<path class="s2" d="m40.85 139.35v-0.83h0.78l0.56 0.14v-0.23c-0.84-0.19-1.42-0.78-1.42-1.78 0-1.06 0.62-1.74 1.92-1.74h2.81v0.82h-2.7c-0.95 0-1.32 0.37-1.32 1.15 0 0.97 0.73 1.64 1.98 1.64h2.03v0.83c0 0-4.63 0-4.64 0z"/>
				<path class="s2" d="m42.86 132.33l-0.18-1.82c-0.84 0.03-1.24 0.42-1.24 1.24 0 0.64 0.29 1.13 1.07 1.2v0.82c-1.06-0.1-1.74-0.81-1.74-2.01 0-1.35 0.83-2.08 2.05-2.08h1.97v-0.68h0.71v0.85c0 0.35-0.21 0.56-0.56 0.56h-0.22l-0.5-0.13v0.24c0.71 0.17 1.37 0.67 1.37 1.79 0 1.36-0.9 1.57-1.38 1.57-0.74 0-1.25-0.45-1.35-1.55zm2.05-0.15c0-1-0.71-1.66-1.64-1.66l0.18 1.67c0.05 0.57 0.21 0.87 0.66 0.87 0.53 0 0.8-0.34 0.8-0.87z"/>
				<path class="s2" d="m43.17 128.36c-1.37 0-2.4-0.85-2.4-2.2 0-1.06 0.57-1.67 1.29-1.88v-0.23l-0.55 0.14h-0.64v-0.82h5.86q0.57 0 0.57 0.65v3.54h-0.71v-3.35h-1.1v-0.02h-0.64l-0.55-0.14v0.23c0.71 0.21 1.29 0.82 1.29 1.88 0 1.35-1.04 2.2-2.42 2.2zm1.71-2.47c0-0.94-0.51-1.7-1.7-1.7-1.19 0-1.7 0.76-1.7 1.7 0 0.95 0.51 1.64 1.7 1.64 1.19 0 1.71-0.69 1.71-1.63z"/>
				<path class="s2" d="m42.86 120.7l-0.17-1.82c-0.84 0.04-1.25 0.42-1.25 1.24 0 0.64 0.3 1.13 1.08 1.2v0.82c-1.06-0.1-1.75-0.81-1.75-2.01 0-1.35 0.83-2.08 2.06-2.08h1.96v-0.68h0.71v0.85c0 0.35-0.2 0.56-0.56 0.56h-0.22l-0.49-0.13v0.24c0.71 0.17 1.36 0.67 1.36 1.79 0 1.36-0.89 1.57-1.37 1.57-0.74 0-1.25-0.45-1.36-1.55zm2.05-0.15c0-1.01-0.71-1.66-1.64-1.66l0.18 1.67c0.05 0.57 0.21 0.87 0.66 0.87 0.53 0 0.8-0.34 0.8-0.87z"/>
				<path class="s2" d="m40.87 115.84v-2.62h0.71v2.45h3.92v0.82h-3.98q-0.65 0-0.65-0.65z"/>
			</g>
			<g>
				<path class="s1" d="m95.48 147.39h-1.58l-1.1-5.1h-0.14v5.11h-0.8v-5.23h1.66l1.1 5.11h0.13l1.09-5.11h1.66v5.22h-0.8v-5.11h-0.14c0 0-1.09 5.11-1.08 5.11z"/>
				<path class="s1" d="m98.13 147.39l1.58-5.22h1.6l1.6 5.22h-0.81l-0.56-1.85h-2.05l-0.55 1.85c0 0-0.81 0-0.81 0zm1.54-2.54h1.68l-0.76-2.57h-0.15z"/>
				<path class="s1" d="m103.51 142.16h2.1c1.29 0 1.83 0.39 1.83 1.42 0 0.88-0.48 1.17-1.6 1.17v0.15h0.28c0.52 0 0.87 0.22 1.04 0.77l0.51 1.7h-0.95l-0.3-1.96c-0.04-0.21-0.07-0.22-0.28-0.22h-1.82v2.19h-0.8v-5.22zm0.8 2.33h1.3c0.71 0 1.03-0.17 1.02-0.82 0-0.64-0.32-0.81-1.03-0.81h-1.29c0 0 0 1.63 0 1.63z"/>
				<path class="s1" d="m108.07 147.38l1.59-5.22h1.6l1.59 5.21h-0.81l-0.55-1.84h-2.06l-0.55 1.84c0 0-0.81 0-0.81 0.01zm1.55-2.55h1.68l-0.77-2.56h-0.14z"/>
				<path class="s1" d="m114.22 147.37v-4.51h-1.75v-0.71h4.3v0.71h-1.75v4.51z"/>
				<path class="s1" d="m120.93 147.36v-2.26h-2.74v2.26h-0.8v-5.22h0.8v2.26h2.74v-2.26h0.8v5.22z"/>
				<path class="s1" d="m122.36 147.36l1.58-5.22h1.6l1.6 5.22h-0.81l-0.56-1.85h-2.05l-0.55 1.85c0 0-0.81 0-0.81 0zm1.54-2.54h1.68l-0.76-2.57h-0.15z"/>
				<path class="s1" d="m131.29 147.35v-2.26h-2.74v2.26h-0.8v-5.22h0.8v2.26h2.74v-2.26h0.8v5.22z"/>
				<path class="s1" d="m132.72 147.35l1.58-5.22h1.6l1.6 5.22h-0.81l-0.56-1.85h-2.05l-0.55 1.85c0 0-0.81 0-0.81 0zm1.54-2.54h1.68l-0.76-2.57h-0.15z"/>
				<path class="s1" d="m138.11 147.35v-5.23h0.79v4.52h2.55v0.71z"/>
				<path class="s1" d="m142.05 147.35v-5.23h0.79v4.52h2.55v0.71z"/>
				<path class="s1" d="m145.77 142.12h3.62v0.69h-1.41v3.83h1.41v0.7h-3.62v-0.7h1.42v-3.83h-1.42z"/>
			</g>
		</g>
	</g>
</svg>