<svg width="400" height="165" viewBox="0 0 400 165" fill="none" xmlns="http://www.w3.org/2000/svg">
<g clip-path="url(#clip0_1183_295)">
<path d="M0.685 100.304H0.5V162.094H0.685H9.254H9.443V100.304H9.254H0.685Z" fill="white"/>
<path d="M162.29 131.501V123.959H128.615V108.413H163.765V100.304H119.855V162.093H128.12V131.501H162.29Z" fill="white"/>
<path d="M187.74 100.304H178.991V162.094H187.74V100.304Z" fill="white"/>
<path d="M281.1 164.536V100.305H272.586V147.681L234.376 119.206L206.538 98.46V162.088H215.292V116.384L281.1 164.536Z" fill="white"/>
<path d="M93.9268 100.305V147.486L54.2998 118.07L27.8818 98.46V162.088H36.6388V116.612L102.441 164.536V100.305H93.9268Z" fill="white"/>
<path d="M308.208 162.094V100.304H299.454V162.094H308.208Z" fill="white"/>
<path d="M399.5 162.094L371.869 117.285L360.251 98.4438L352.094 111.174L319.468 162.094H330.602L336.518 152.406L341.526 144.204H378.39L383.413 152.819L388.822 162.095H399.5V162.094ZM359.922 114.393L368.69 128.222L374.056 136.686H345.854L356.131 120.401L359.922 114.393Z" fill="white"/>
<path d="M215.426 43.5231C215.426 35.0391 209.097 29.2181 199.825 27.4141C204.972 25.5301 208.524 21.8831 208.524 16.1031C208.524 7.1681 200.357 3.3291 189.984 3.3291H178.18V58.9871H193.617C205.297 58.9871 215.426 54.2601 215.426 43.5231ZM186.349 55.8731V28.9441V25.8301V6.4431H190.637C198.315 6.4431 200.887 10.1731 200.887 15.7881C200.887 16.7231 201.51 25.9041 193.965 27.5751C195.884 28.0571 199.498 29.2581 202.374 31.9081C205.392 34.4071 206.808 38.2761 206.808 42.7171C206.808 50.5041 202.521 55.8731 192.884 55.8731H186.349Z" fill="white"/>
<path d="M73.8426 56.8479C65.0616 56.8479 58.6736 51.6339 57.1436 50.2619L61.0206 57.1269C64.8176 59.0809 69.6496 59.9469 73.8006 59.9469C80.9946 59.9469 93.6726 57.3629 93.6726 44.7399C93.6726 35.8949 87.2806 30.9229 76.7536 23.7839C71.8826 20.3229 65.2466 16.8259 65.2466 11.1319C65.2466 6.39687 69.6236 3.56287 75.6836 3.56287C81.7666 3.56287 86.5246 6.44987 87.6686 7.20687L84.6636 1.97787C82.6316 0.832867 78.1496 0.463867 75.7696 0.463867C67.7276 0.463867 58.3346 3.86387 58.3346 13.4439C58.3346 21.0199 64.3015 25.2989 74.1866 32.3899C78.7776 35.6559 85.9916 40.8259 85.9916 47.1799C85.9916 53.1429 81.3376 56.8479 73.8426 56.8479Z" fill="white"/>
<path d="M133.46 59.9456C148.352 59.9456 159.875 48.0646 159.875 31.1576C159.875 14.6606 148.352 2.36963 133.46 2.36963C118.569 2.36963 107.011 14.6606 107.011 31.1576C107.011 48.0646 118.569 59.9456 133.46 59.9456ZM133.46 5.47263C144.393 5.47263 151.706 16.0896 151.706 31.1576C151.706 46.3076 144.393 56.8426 133.46 56.8426C122.526 56.8426 115.213 46.3076 115.213 31.1576C115.213 16.0896 122.526 5.47263 133.46 5.47263Z" fill="white"/>
<path d="M327.58 42.6488L334.278 58.9878H342.857L319.533 2.09082L296.212 58.9868H299.397L306.095 42.6478L327.58 42.6488ZM316.838 16.3868L326.314 39.5458H307.361L316.838 16.3868Z" fill="white"/>
<path d="M242.481 29.3058H272.335V58.9878H280.503V3.3418H272.335V26.2028H242.481V3.3418H234.312V58.9878H242.481V29.3058Z" fill="white"/>
</g>
<defs>
<clipPath id="clip0_1183_295">
<rect width="400" height="165" fill="white"/>
</clipPath>
</defs>
</svg>
