<svg width="134" height="46" viewBox="0 0 134 46" fill="none" xmlns="http://www.w3.org/2000/svg">
<g clip-path="url(#clip0_1011_68)">
<path d="M64.2071 25.6295H61.1846V2.76561H63.1682C66.7196 2.76561 67.9089 4.49106 67.9089 7.08815C67.9089 7.52052 68.1974 11.7673 64.7071 12.5404C65.5945 12.7635 67.2663 13.3191 68.5968 14.5447C69.9931 15.7007 70.6479 17.4899 70.6479 19.5441C70.6479 23.1461 68.6649 25.6295 64.2071 25.6295ZM67.418 12.4657C69.7989 11.5941 71.4416 9.90723 71.4416 7.23369C71.4416 3.10058 67.6639 1.3252 62.866 1.3252H57.4062V27.0699H64.5466C69.9494 27.0699 74.6341 24.8838 74.6341 19.9169C74.6341 15.9927 71.7064 13.2999 67.418 12.4657Z" fill="white"/>
<path d="M3.21508 26.2092C4.97151 27.113 7.20645 27.5137 9.12669 27.5137C12.4543 27.5137 18.3187 26.3186 18.3187 20.4797C18.3187 16.3883 15.3619 14.0883 10.4927 10.7864C8.23922 9.18554 5.17009 7.56796 5.17009 4.93431C5.17009 2.74417 7.19441 1.43325 9.99766 1.43325C12.8116 1.43325 15.0124 2.76891 15.5413 3.11904L14.1515 0.700234C13.2116 0.170473 11.1385 -0.000244141 10.0376 -0.000244141C6.31786 -0.000244141 1.97303 1.57233 1.97303 6.00364C1.97303 9.50781 4.73326 11.4874 9.30565 14.7671C11.4291 16.2777 14.7659 18.6695 14.7659 21.6085C14.7659 24.3668 12.613 26.0802 9.1463 26.0802C5.08473 26.0802 2.12993 23.6683 1.42188 23.0338L3.21508 26.2092Z" fill="white"/>
<path d="M45.1621 14.1976C45.1621 7.22799 41.7794 2.31685 36.7223 2.31685C31.6647 2.31685 28.2818 7.22799 28.2818 14.1976C28.2818 21.2052 31.6647 26.0783 36.7223 26.0783C41.7794 26.0783 45.1621 21.2052 45.1621 14.1976ZM36.7223 27.5138C29.8343 27.5138 24.4883 22.018 24.4883 14.1976C24.4883 6.56674 29.8343 0.881348 36.7223 0.881348C43.6103 0.881348 48.9406 6.56674 48.9406 14.1976C48.9406 22.018 43.6105 27.5138 36.7223 27.5138Z" fill="white"/>
<path d="M117.162 18.0774H125.928L121.545 7.36547L117.162 18.0774ZM126.514 19.5129H116.576L113.478 27.0702H112.004L122.791 0.75293L133.58 27.0702H129.612L126.514 19.5129Z" fill="white"/>
<path d="M100.959 1.33154V11.9058H87.1494V1.33154H83.3711V27.0707H87.1494V13.3413H100.959V27.0707H104.737V1.33154H100.959Z" fill="white"/>
</g>
<path d="M1.17898 44H0.255682L2.92614 36.7273H3.83523L6.50568 44H5.58239L3.40909 37.8778H3.35227L1.17898 44ZM1.51989 41.1591H5.24148V41.9403H1.51989V41.1591ZM13.5624 41.7699V38.5455H14.4004V44H13.5624V43.0767H13.5055C13.3777 43.3537 13.1788 43.5893 12.9089 43.7834C12.6391 43.9751 12.2982 44.071 11.8862 44.071C11.5453 44.071 11.2423 43.9964 10.9771 43.8473C10.712 43.6958 10.5036 43.4685 10.3521 43.1655C10.2006 42.8601 10.1249 42.4754 10.1249 42.0114V38.5455H10.9629V41.9545C10.9629 42.3523 11.0742 42.6695 11.2967 42.9062C11.5216 43.143 11.8081 43.2614 12.1561 43.2614C12.3644 43.2614 12.5763 43.2081 12.7918 43.1016C13.0096 42.995 13.1919 42.8317 13.3386 42.6115C13.4878 42.3913 13.5624 42.1108 13.5624 41.7699ZM20.9076 38.5455V39.2557H18.0809V38.5455H20.9076ZM18.9047 37.2386H19.7428V42.4375C19.7428 42.6742 19.7771 42.8518 19.8458 42.9702C19.9168 43.0862 20.0068 43.1643 20.1157 43.2045C20.2269 43.2424 20.3441 43.2614 20.4672 43.2614C20.5596 43.2614 20.6353 43.2566 20.6945 43.2472C20.7537 43.2353 20.801 43.2259 20.8365 43.2188L21.007 43.9716C20.9502 43.9929 20.8709 44.0142 20.7691 44.0355C20.6673 44.0592 20.5382 44.071 20.382 44.071C20.1453 44.071 19.9132 44.0201 19.686 43.9183C19.4611 43.8165 19.274 43.6615 19.1249 43.4531C18.9781 43.2448 18.9047 42.982 18.9047 42.6648V37.2386ZM25.7235 40.7188V44H24.8854V36.7273H25.7235V39.3977H25.7945C25.9223 39.116 26.1141 38.8923 26.3698 38.7266C26.6278 38.5585 26.9711 38.4744 27.3996 38.4744C27.7713 38.4744 28.0968 38.549 28.3762 38.6982C28.6555 38.8449 28.8721 39.071 29.026 39.3764C29.1823 39.6795 29.2604 40.0653 29.2604 40.5341V44H28.4223V40.5909C28.4223 40.1577 28.3099 39.8227 28.085 39.5859C27.8624 39.3468 27.5535 39.2273 27.1581 39.2273C26.8835 39.2273 26.6373 39.2853 26.4195 39.4013C26.2041 39.5173 26.0336 39.6866 25.9081 39.9091C25.785 40.1316 25.7235 40.4015 25.7235 40.7188ZM35.6095 44.1136C35.1171 44.1136 34.685 43.9964 34.3134 43.7621C33.944 43.5277 33.6552 43.1998 33.4469 42.7784C33.2409 42.357 33.1379 41.8646 33.1379 41.3011C33.1379 40.733 33.2409 40.237 33.4469 39.8132C33.6552 39.3894 33.944 39.0604 34.3134 38.826C34.685 38.5916 35.1171 38.4744 35.6095 38.4744C36.1019 38.4744 36.5328 38.5916 36.9021 38.826C37.2738 39.0604 37.5626 39.3894 37.7686 39.8132C37.9769 40.237 38.0811 40.733 38.0811 41.3011C38.0811 41.8646 37.9769 42.357 37.7686 42.7784C37.5626 43.1998 37.2738 43.5277 36.9021 43.7621C36.5328 43.9964 36.1019 44.1136 35.6095 44.1136ZM35.6095 43.3608C35.9836 43.3608 36.2913 43.2649 36.5328 43.0732C36.7743 42.8814 36.953 42.6293 37.069 42.3168C37.185 42.0043 37.243 41.6657 37.243 41.3011C37.243 40.9366 37.185 40.5968 37.069 40.282C36.953 39.9671 36.7743 39.7126 36.5328 39.5185C36.2913 39.3243 35.9836 39.2273 35.6095 39.2273C35.2355 39.2273 34.9277 39.3243 34.6862 39.5185C34.4447 39.7126 34.266 39.9671 34.15 40.282C34.034 40.5968 33.976 40.9366 33.976 41.3011C33.976 41.6657 34.034 42.0043 34.15 42.3168C34.266 42.6293 34.4447 42.8814 34.6862 43.0732C34.9277 43.2649 35.2355 43.3608 35.6095 43.3608ZM41.9604 44V38.5455H42.7701V39.3693H42.8269C42.9263 39.0994 43.1062 38.8804 43.3667 38.7124C43.6271 38.5443 43.9206 38.4602 44.2473 38.4602C44.3089 38.4602 44.3858 38.4614 44.4782 38.4638C44.5705 38.4661 44.6403 38.4697 44.6877 38.4744V39.3267C44.6593 39.3196 44.5942 39.3089 44.4924 39.2947C44.3929 39.2782 44.2876 39.2699 44.1763 39.2699C43.9112 39.2699 43.6744 39.3255 43.4661 39.4368C43.2601 39.5457 43.0968 39.6972 42.976 39.8913C42.8577 40.0831 42.7985 40.3021 42.7985 40.5483V44H41.9604ZM48.2811 44V38.5455H49.1192V44H48.2811ZM48.7072 37.6364C48.5439 37.6364 48.403 37.5807 48.2847 37.4695C48.1687 37.3582 48.1107 37.2244 48.1107 37.0682C48.1107 36.9119 48.1687 36.7782 48.2847 36.6669C48.403 36.5556 48.5439 36.5 48.7072 36.5C48.8706 36.5 49.0103 36.5556 49.1263 36.6669C49.2446 36.7782 49.3038 36.9119 49.3038 37.0682C49.3038 37.2244 49.2446 37.3582 49.1263 37.4695C49.0103 37.5807 48.8706 37.6364 48.7072 37.6364ZM53.0979 44V43.3608L56.1945 39.3835V39.3267H53.1973V38.5455H57.274V39.2131L54.2627 43.1619V43.2188H57.3735V44H53.0979ZM63.395 44.1136C62.8694 44.1136 62.4161 43.9976 62.0349 43.7656C61.6561 43.5312 61.3637 43.2045 61.1578 42.7855C60.9542 42.3641 60.8524 41.8741 60.8524 41.3153C60.8524 40.7566 60.9542 40.2642 61.1578 39.8381C61.3637 39.4096 61.6502 39.0758 62.0172 38.8366C62.3865 38.5952 62.8173 38.4744 63.3098 38.4744C63.5939 38.4744 63.8744 38.5218 64.1514 38.6165C64.4284 38.7112 64.6805 38.8651 64.9078 39.0781C65.135 39.2888 65.3162 39.5682 65.4511 39.9162C65.586 40.2642 65.6535 40.6927 65.6535 41.2017V41.5568H61.449V40.8324H64.8012C64.8012 40.5246 64.7397 40.25 64.6166 40.0085C64.4958 39.767 64.323 39.5765 64.0981 39.4368C63.8756 39.2971 63.6128 39.2273 63.3098 39.2273C62.976 39.2273 62.6871 39.3101 62.4433 39.4759C62.2018 39.6392 62.016 39.8523 61.8858 40.1151C61.7556 40.3778 61.6904 40.6596 61.6904 40.9602V41.4432C61.6904 41.8551 61.7615 42.2043 61.9035 42.4908C62.0479 42.7749 62.248 42.9915 62.5037 43.1406C62.7593 43.2874 63.0565 43.3608 63.395 43.3608C63.6152 43.3608 63.814 43.33 63.9916 43.2685C64.1715 43.2045 64.3266 43.1098 64.4568 42.9844C64.587 42.8565 64.6876 42.6979 64.7586 42.5085L65.5683 42.7358C65.4831 43.0104 65.3398 43.2519 65.1386 43.4602C64.9374 43.6662 64.6888 43.8272 64.3929 43.9432C64.0969 44.0568 63.7643 44.1136 63.395 44.1136ZM71.588 44.1136C71.1335 44.1136 70.7322 43.9988 70.3842 43.7692C70.0362 43.5372 69.7639 43.2105 69.5674 42.7891C69.3709 42.3653 69.2727 41.8646 69.2727 41.2869C69.2727 40.714 69.3709 40.2169 69.5674 39.7955C69.7639 39.3741 70.0374 39.0485 70.3878 38.8189C70.7381 38.5893 71.143 38.4744 71.6022 38.4744C71.9574 38.4744 72.2379 38.5336 72.4439 38.652C72.6522 38.768 72.8108 38.9006 72.9197 39.0497C73.031 39.1965 73.1174 39.3172 73.1789 39.4119H73.25V36.7273H74.088V44H73.2784V43.1619H73.1789C73.1174 43.2614 73.0298 43.3868 72.9162 43.5384C72.8025 43.6875 72.6404 43.8213 72.4297 43.9396C72.219 44.0556 71.9384 44.1136 71.588 44.1136ZM71.7017 43.3608C72.0378 43.3608 72.3219 43.2732 72.5539 43.098C72.786 42.9205 72.9623 42.6754 73.0831 42.3629C73.2038 42.0481 73.2642 41.6847 73.2642 41.2727C73.2642 40.8655 73.205 40.5092 73.0866 40.2038C72.9682 39.8961 72.7931 39.657 72.561 39.4865C72.329 39.3137 72.0426 39.2273 71.7017 39.2273C71.3466 39.2273 71.0506 39.3184 70.8139 39.5007C70.5795 39.6806 70.4031 39.9257 70.2848 40.2358C70.1688 40.5436 70.1108 40.8892 70.1108 41.2727C70.1108 41.661 70.1699 42.0137 70.2883 42.331C70.4091 42.6458 70.5866 42.8968 70.821 43.0838C71.0577 43.2685 71.3513 43.3608 71.7017 43.3608ZM83.8654 44V36.7273H86.3228C86.8934 36.7273 87.3598 36.8303 87.722 37.0362C88.0866 37.2398 88.3564 37.5156 88.5316 37.8636C88.7068 38.2116 88.7944 38.5999 88.7944 39.0284C88.7944 39.4569 88.7068 39.8464 88.5316 40.1967C88.3588 40.5471 88.0913 40.8265 87.7291 41.0348C87.3669 41.2408 86.9029 41.3438 86.337 41.3438H84.5757V40.5625H86.3086C86.6993 40.5625 87.0129 40.495 87.2497 40.3601C87.4864 40.2251 87.6581 40.0429 87.7646 39.8132C87.8735 39.5812 87.9279 39.3196 87.9279 39.0284C87.9279 38.7372 87.8735 38.4768 87.7646 38.2472C87.6581 38.0175 87.4852 37.8376 87.2461 37.7074C87.007 37.5748 86.6898 37.5085 86.2944 37.5085H84.7461V44H83.8654ZM94.3046 44.1278C93.9589 44.1278 93.6453 44.0627 93.3635 43.9325C93.0818 43.8 92.8581 43.6094 92.6924 43.3608C92.5266 43.1098 92.4438 42.8068 92.4438 42.4517C92.4438 42.1392 92.5053 41.8859 92.6284 41.6918C92.7515 41.4953 92.9161 41.3414 93.122 41.2301C93.328 41.1188 93.5553 41.036 93.8039 40.9815C94.0548 40.9247 94.3069 40.8797 94.5603 40.8466C94.8917 40.804 95.1604 40.772 95.3664 40.7507C95.5747 40.727 95.7262 40.688 95.8209 40.6335C95.918 40.5791 95.9665 40.4844 95.9665 40.3494V40.321C95.9665 39.9706 95.8706 39.6984 95.6789 39.5043C95.4895 39.3101 95.2018 39.2131 94.8159 39.2131C94.4158 39.2131 94.1022 39.3007 93.8749 39.4759C93.6476 39.651 93.4878 39.8381 93.3955 40.0369L92.6 39.7528C92.7421 39.4214 92.9315 39.1634 93.1682 38.9787C93.4073 38.7917 93.6677 38.6615 93.9495 38.5881C94.2336 38.5123 94.5129 38.4744 94.7875 38.4744C94.9627 38.4744 95.164 38.4957 95.3912 38.5384C95.6209 38.5786 95.8422 38.6626 96.0553 38.7905C96.2707 38.9183 96.4495 39.1113 96.5915 39.3693C96.7336 39.6274 96.8046 39.973 96.8046 40.4062V44H95.9665V43.2614H95.9239C95.8671 43.3797 95.7724 43.5064 95.6398 43.6413C95.5072 43.7763 95.3309 43.8911 95.1107 43.9858C94.8905 44.0805 94.6218 44.1278 94.3046 44.1278ZM94.4324 43.375C94.7639 43.375 95.0432 43.3099 95.2705 43.1797C95.5001 43.0495 95.6729 42.8814 95.789 42.6754C95.9073 42.4695 95.9665 42.2528 95.9665 42.0256V41.2585C95.931 41.3011 95.8529 41.3402 95.7321 41.3757C95.6138 41.4089 95.4765 41.4384 95.3202 41.4645C95.1663 41.4882 95.016 41.5095 94.8692 41.5284C94.7248 41.545 94.6076 41.5592 94.5176 41.571C94.2998 41.5994 94.0962 41.6456 93.9069 41.7095C93.7198 41.7711 93.5683 41.8646 93.4523 41.9901C93.3387 42.1132 93.2819 42.2812 93.2819 42.4943C93.2819 42.7855 93.3896 43.0057 93.605 43.1548C93.8228 43.3016 94.0986 43.375 94.4324 43.375ZM100.934 44V38.5455H101.744V39.3693H101.801C101.9 39.0994 102.08 38.8804 102.34 38.7124C102.601 38.5443 102.894 38.4602 103.221 38.4602C103.283 38.4602 103.36 38.4614 103.452 38.4638C103.544 38.4661 103.614 38.4697 103.662 38.4744V39.3267C103.633 39.3196 103.568 39.3089 103.466 39.2947C103.367 39.2782 103.261 39.2699 103.15 39.2699C102.885 39.2699 102.648 39.3255 102.44 39.4368C102.234 39.5457 102.071 39.6972 101.95 39.8913C101.831 40.0831 101.772 40.3021 101.772 40.5483V44H100.934ZM109.969 38.5455V39.2557H107.142V38.5455H109.969ZM107.966 37.2386H108.804V42.4375C108.804 42.6742 108.838 42.8518 108.907 42.9702C108.978 43.0862 109.068 43.1643 109.177 43.2045C109.288 43.2424 109.405 43.2614 109.529 43.2614C109.621 43.2614 109.697 43.2566 109.756 43.2472C109.815 43.2353 109.862 43.2259 109.898 43.2188L110.068 43.9716C110.012 43.9929 109.932 44.0142 109.83 44.0355C109.729 44.0592 109.6 44.071 109.443 44.071C109.207 44.071 108.975 44.0201 108.747 43.9183C108.522 43.8165 108.335 43.6615 108.186 43.4531C108.039 43.2448 107.966 42.982 107.966 42.6648V37.2386ZM114.668 40.7188V44H113.83V38.5455H114.639V39.3977H114.71C114.838 39.1207 115.032 38.8982 115.293 38.7301C115.553 38.5597 115.889 38.4744 116.301 38.4744C116.67 38.4744 116.994 38.5502 117.271 38.7017C117.548 38.8509 117.763 39.0781 117.917 39.3835C118.071 39.6866 118.148 40.0701 118.148 40.5341V44H117.31V40.5909C117.31 40.1624 117.198 39.8286 116.976 39.5895C116.753 39.348 116.448 39.2273 116.06 39.2273C115.792 39.2273 115.553 39.2853 115.342 39.4013C115.134 39.5173 114.969 39.6866 114.849 39.9091C114.728 40.1316 114.668 40.4015 114.668 40.7188ZM124.566 44.1136C124.041 44.1136 123.587 43.9976 123.206 43.7656C122.827 43.5312 122.535 43.2045 122.329 42.7855C122.125 42.3641 122.023 41.8741 122.023 41.3153C122.023 40.7566 122.125 40.2642 122.329 39.8381C122.535 39.4096 122.821 39.0758 123.188 38.8366C123.558 38.5952 123.988 38.4744 124.481 38.4744C124.765 38.4744 125.045 38.5218 125.322 38.6165C125.599 38.7112 125.852 38.8651 126.079 39.0781C126.306 39.2888 126.487 39.5682 126.622 39.9162C126.757 40.2642 126.825 40.6927 126.825 41.2017V41.5568H122.62V40.8324H125.972C125.972 40.5246 125.911 40.25 125.788 40.0085C125.667 39.767 125.494 39.5765 125.269 39.4368C125.047 39.2971 124.784 39.2273 124.481 39.2273C124.147 39.2273 123.858 39.3101 123.614 39.4759C123.373 39.6392 123.187 39.8523 123.057 40.1151C122.927 40.3778 122.862 40.6596 122.862 40.9602V41.4432C122.862 41.8551 122.933 42.2043 123.075 42.4908C123.219 42.7749 123.419 42.9915 123.675 43.1406C123.93 43.2874 124.228 43.3608 124.566 43.3608C124.786 43.3608 124.985 43.33 125.163 43.2685C125.343 43.2045 125.498 43.1098 125.628 42.9844C125.758 42.8565 125.859 42.6979 125.93 42.5085L126.739 42.7358C126.654 43.0104 126.511 43.2519 126.31 43.4602C126.108 43.6662 125.86 43.8272 125.564 43.9432C125.268 44.0568 124.935 44.1136 124.566 44.1136ZM130.699 44V38.5455H131.509V39.3693H131.566C131.665 39.0994 131.845 38.8804 132.106 38.7124C132.366 38.5443 132.66 38.4602 132.986 38.4602C133.048 38.4602 133.125 38.4614 133.217 38.4638C133.31 38.4661 133.379 38.4697 133.427 38.4744V39.3267C133.398 39.3196 133.333 39.3089 133.231 39.2947C133.132 39.2782 133.027 39.2699 132.915 39.2699C132.65 39.2699 132.413 39.3255 132.205 39.4368C131.999 39.5457 131.836 39.6972 131.715 39.8913C131.597 40.0831 131.538 40.3021 131.538 40.5483V44H130.699Z" fill="white"/>
<defs>
<clipPath id="clip0_1011_68">
<rect width="133" height="28" fill="white" transform="translate(1)"/>
</clipPath>
</defs>
</svg>
