<svg width="259" height="258" viewBox="0 0 259 258" fill="none" xmlns="http://www.w3.org/2000/svg">
<path d="M112.56 129.81H93.49V173.62H112.56V129.81Z" stroke="#1B1919" stroke-width="5.36" stroke-miterlimit="10"/>
<path d="M166.96 129.48H147.89V173.29H166.96V129.48Z" stroke="#1B1919" stroke-width="5.36" stroke-miterlimit="10"/>
<path d="M179.21 137H166.96V165.15H179.21V137Z" stroke="#1B1919" stroke-width="5.36" stroke-miterlimit="10"/>
<path d="M93.49 138.71H81.24V166.86H93.49V138.71Z" stroke="#1B1919" stroke-width="5.36" stroke-miterlimit="10"/>
<path d="M147.89 151.71H112.56" stroke="#1B1919" stroke-width="5.36" stroke-miterlimit="10"/>
<path d="M130.14 120.63C130.14 120.63 123.79 105.04 142.23 102.07C142.23 102.07 148.32 123.11 130.14 120.63Z" stroke="#1B1919" stroke-width="5.12" stroke-miterlimit="10"/>
<path d="M131.2 97.1198C131.2 97.1198 124.85 81.5298 143.29 78.5498C143.29 78.5498 149.38 99.5998 131.2 97.1198Z" stroke="#1B1919" stroke-width="5.12" stroke-miterlimit="10"/>
<path d="M127.25 105.48C127.25 105.48 133.59 89.8902 115.15 86.9102C115.15 86.9102 109.07 108 127.25 105.48Z" stroke="#1B1919" stroke-width="5.12" stroke-miterlimit="10"/>
</svg>
