<svg width="259" height="258" viewBox="0 0 259 258" fill="none" xmlns="http://www.w3.org/2000/svg">
<path d="M144.16 79C148.575 79 152.947 79.8696 157.026 81.5592C161.105 83.2487 164.811 85.7252 167.933 88.8471C171.055 91.969 173.531 95.6752 175.221 99.7542C176.91 103.833 177.78 108.205 177.78 112.62V140.35H110.55V112.58C110.561 103.672 114.106 95.1325 120.408 88.8365C126.709 82.5404 135.252 79.0026 144.16 79V79Z" stroke="#1B1919" stroke-width="5.9" stroke-miterlimit="10"/>
<path d="M178.78 140.32L154.48 156.03H135.58L109.55 140.32" stroke="#1B1919" stroke-width="5.9" stroke-miterlimit="10"/>
<path d="M153.61 156.03H136.17V179H153.61V156.03Z" stroke="#1B1919" stroke-width="5.81" stroke-miterlimit="10"/>
<path d="M101.23 176.04C107.095 176.04 111.85 171.285 111.85 165.42C111.85 159.555 107.095 154.8 101.23 154.8C95.3647 154.8 90.61 159.555 90.61 165.42C90.61 171.285 95.3647 176.04 101.23 176.04Z" stroke="#1B1919" stroke-width="5.9" stroke-miterlimit="10"/>
</svg>
