<svg width="259" height="258" viewBox="0 0 259 258" fill="none" xmlns="http://www.w3.org/2000/svg">
<path d="M125.398 94.7086C131.688 90.2597 139.488 88.4919 147.082 89.794C154.675 91.0961 161.441 95.3615 165.89 101.652L179.748 121.246L132.313 154.795L118.454 135.2C114.006 128.91 112.238 121.11 113.54 113.517C114.842 105.923 119.107 99.1574 125.398 94.7086V94.7086Z" stroke="#1B1919" stroke-width="5.36" stroke-miterlimit="10"/>
<path d="M180.44 120.72L171.14 143.94L157.8 153.37L131.59 155.28" stroke="#1B1919" stroke-width="5.36" stroke-miterlimit="10"/>
<path d="M170.527 144.38L158.223 153.082L169.685 169.288L181.989 160.587L170.527 144.38Z" stroke="#1B1919" stroke-width="5.36" stroke-miterlimit="10"/>
<path d="M138.25 186.31C143.32 186.31 147.43 182.2 147.43 177.13C147.43 172.06 143.32 167.95 138.25 167.95C133.18 167.95 129.07 172.06 129.07 177.13C129.07 182.2 133.18 186.31 138.25 186.31Z" stroke="#1B1919" stroke-width="5.36" stroke-miterlimit="10"/>
<path d="M118.4 178.13H83V99.4501C83 94.8663 84.8202 90.47 88.0606 87.2278C91.3009 83.9856 95.6961 82.1628 100.28 82.1602H121" stroke="#1B1919" stroke-width="5.36" stroke-miterlimit="10"/>
</svg>
