<svg width="259" height="258" viewBox="0 0 259 258" fill="none" xmlns="http://www.w3.org/2000/svg">
<path d="M81.37 176.45L89.23 151.52H117.19H89.23L81.37 126.85" stroke="#1B1919" stroke-width="5.44" stroke-miterlimit="10"/>
<path d="M123.49 176.61L113.7 151.52" stroke="#1B1919" stroke-width="5.44" stroke-miterlimit="10"/>
<path d="M177.34 176.37L169.47 151.44H141.51H169.47L177.34 126.77" stroke="#1B1919" stroke-width="5.44" stroke-miterlimit="10"/>
<path d="M135.22 176.53L145.01 151.44" stroke="#1B1919" stroke-width="5.44" stroke-miterlimit="10"/>
<path d="M177.34 112V102.1C177.34 99.2758 176.784 96.4792 175.702 93.8701C174.621 91.2609 173.037 88.8904 171.039 86.8938C169.042 84.8972 166.67 83.3137 164.061 82.2338C161.451 81.1539 158.654 80.5988 155.83 80.6001H102.83C97.1278 80.6001 91.6592 82.8653 87.6272 86.8973C83.5951 90.9293 81.33 96.3979 81.33 102.1V112H177.34Z" stroke="#1B1919" stroke-width="5.44" stroke-miterlimit="10"/>
<path d="M93.97 84.23V112.04" stroke="#1B1919" stroke-width="5.44" stroke-miterlimit="10"/>
<path d="M105.28 82.4299V110.24" stroke="#1B1919" stroke-width="5.44" stroke-miterlimit="10"/>
<path d="M116.7 82.4299V110.24" stroke="#1B1919" stroke-width="5.44" stroke-miterlimit="10"/>
<path d="M128.49 82.1201V109.93" stroke="#1B1919" stroke-width="5.44" stroke-miterlimit="10"/>
<path d="M140.68 82.1201V109.93" stroke="#1B1919" stroke-width="5.44" stroke-miterlimit="10"/>
<path d="M152.23 82.1201V109.93" stroke="#1B1919" stroke-width="5.44" stroke-miterlimit="10"/>
<path d="M164.42 82.1201V109.93" stroke="#1B1919" stroke-width="5.44" stroke-miterlimit="10"/>
</svg>
