<svg width="259" height="258" viewBox="0 0 259 258" fill="none" xmlns="http://www.w3.org/2000/svg">
<path d="M79.75 178.23H180.88" stroke="#1B1919" stroke-width="5.5" stroke-miterlimit="10"/>
<path d="M79.98 167.09H181.11" stroke="#1B1919" stroke-width="5.5" stroke-miterlimit="10"/>
<path d="M82.45 129.27L89.92 136.26H172.4L179.42 129.27" stroke="#1B1919" stroke-width="5.5" stroke-miterlimit="10"/>
<path d="M99.89 152.06C102.784 152.06 105.13 149.714 105.13 146.82C105.13 143.926 102.784 141.58 99.89 141.58C96.9961 141.58 94.65 143.926 94.65 146.82C94.65 149.714 96.9961 152.06 99.89 152.06Z" stroke="#1B1919" stroke-width="5.5" stroke-miterlimit="10"/>
<path d="M163.13 151.91C166.024 151.91 168.37 149.564 168.37 146.67C168.37 143.776 166.024 141.43 163.13 141.43C160.236 141.43 157.89 143.776 157.89 146.67C157.89 149.564 160.236 151.91 163.13 151.91Z" stroke="#1B1919" stroke-width="5.5" stroke-miterlimit="10"/>
</svg>
