<svg width="259" height="258" viewBox="0 0 259 258" fill="none" xmlns="http://www.w3.org/2000/svg">
<path d="M118.93 131.8C121.712 124.993 125.857 118.827 131.11 113.68C135.762 118.774 139.533 124.607 142.27 130.94" stroke="#1B1919" stroke-width="5.36" stroke-miterlimit="10"/>
<path d="M128.72 170.27C128.51 170.84 128.38 171.14 128.38 171.14L127.51 170.99C123.82 168.9 126.86 169.27 126.86 169.27C127.39 168.32 122.75 165.07 123.3 164.2C124.932 166.373 126.745 168.404 128.72 170.27V170.27Z" stroke="#1B1919" stroke-width="5.36" stroke-miterlimit="10"/>
<path d="M135.6 168.29C135.14 168.79 134.69 169.29 134.27 169.67C134.02 169.93 133.78 170.16 133.55 170.37C132.12 171.71 131.15 171.37 131.15 171.37C130.91 171.16 130.67 171.96 130.44 171.74C129.86 171.24 129.3 170.74 128.76 170.2" stroke="#1B1919" stroke-width="5.36" stroke-miterlimit="10"/>
<path d="M135.6 168.29C139.44 164.1 144.44 156.87 145.11 147.14C145.443 141.592 144.47 136.044 142.27 130.94C148.189 125.981 155.11 122.362 162.56 120.33C165.03 131.76 164.56 140.67 162.56 147.6C156.11 169.13 134 171.65 134 171.65C133.85 171.23 133.7 170.81 133.56 170.4C133.529 170.325 133.502 170.248 133.48 170.17" stroke="#1B1919" stroke-width="5.36" stroke-miterlimit="10"/>
<path d="M127.5 171C108.5 167.56 100.67 157 97.78 146.4C94.27 133.62 98 120.87 98 120.87C107.28 123.8 114 127.61 118.93 131.87C116.772 137.179 115.991 142.948 116.66 148.64C117.482 154.332 119.767 159.714 123.29 164.26C122.74 165.13 128.29 170.26 127.79 171.21C127.79 171.14 123.81 168.89 127.5 171Z" stroke="#1B1919" stroke-width="5.36" stroke-miterlimit="10"/>
<path d="M97.78 146.38C91.4223 147.321 85.2428 149.216 79.45 152C79.45 152 97 187.93 129.72 172.15L130.39 171.81C131.39 171.32 132.39 170.81 133.39 170.17C133.65 170.02 133.92 169.87 134.19 169.7C134.68 169.41 135.19 169.1 135.69 168.77L135.52 168.32" stroke="#1B1919" stroke-width="5.36" stroke-miterlimit="10"/>
<path d="M135.6 168.29C139.44 164.1 144.44 156.87 145.11 147.14" stroke="#1B1919" stroke-width="5.36" stroke-miterlimit="10"/>
<path d="M162.52 147.6C168.485 149.158 174.142 151.718 179.25 155.17C159.67 181.02 140.25 177.29 129.73 172.17C128.94 171.79 128.21 171.39 127.52 171.01" stroke="#1B1919" stroke-width="5.36" stroke-miterlimit="10"/>
<path d="M112.26 111.26C115.993 111.26 119.02 108.233 119.02 104.5C119.02 100.767 115.993 97.74 112.26 97.74C108.527 97.74 105.5 100.767 105.5 104.5C105.5 108.233 108.527 111.26 112.26 111.26Z" stroke="#1B1919" stroke-width="5.36" stroke-miterlimit="10"/>
<path d="M131.56 93.3501C135.293 93.3501 138.32 90.3235 138.32 86.5901C138.32 82.8566 135.293 79.8301 131.56 79.8301C127.827 79.8301 124.8 82.8566 124.8 86.5901C124.8 90.3235 127.827 93.3501 131.56 93.3501Z" stroke="#1B1919" stroke-width="5.36" stroke-miterlimit="10"/>
<path d="M150.06 111.26C153.793 111.26 156.82 108.233 156.82 104.5C156.82 100.767 153.793 97.74 150.06 97.74C146.327 97.74 143.3 100.767 143.3 104.5C143.3 108.233 146.327 111.26 150.06 111.26Z" stroke="#1B1919" stroke-width="5.36" stroke-miterlimit="10"/>
</svg>
