<svg width="259" height="258" viewBox="0 0 259 258" fill="none" xmlns="http://www.w3.org/2000/svg">
<path d="M147.07 109.75C147.07 116.75 139.89 122.45 131.07 122.45C122.25 122.45 115.07 116.76 115.07 109.75" stroke="#1B1919" stroke-width="5.33" stroke-miterlimit="10"/>
<path d="M179.15 109.75C179.15 116.75 171.97 122.45 163.15 122.45C154.33 122.45 147.15 116.76 147.15 109.75" stroke="#1B1919" stroke-width="5.33" stroke-miterlimit="10"/>
<path d="M146.94 127.36C146.94 134.36 139.76 140.06 130.94 140.06C122.12 140.06 114.94 134.38 114.94 127.36" stroke="#1B1919" stroke-width="5.33" stroke-miterlimit="10"/>
<path d="M179 127.36C179 134.36 171.82 140.06 163 140.06C154.18 140.06 147 134.38 147 127.36" stroke="#1B1919" stroke-width="5.33" stroke-miterlimit="10"/>
<path d="M115.29 127.36C115.29 134.36 108.1 140.06 99.29 140.06C90.48 140.06 83.29 134.38 83.29 127.36" stroke="#1B1919" stroke-width="5.33" stroke-miterlimit="10"/>
<path d="M147.37 127.36C147.37 134.36 140.19 140.06 131.37 140.06C122.55 140.06 115.37 134.38 115.37 127.36" stroke="#1B1919" stroke-width="5.33" stroke-miterlimit="10"/>
<path d="M178.94 180.13V153.13H105.21C99.3272 153.138 93.6871 155.476 89.5245 159.633C85.3619 163.79 83.0159 169.427 83 175.31V180.13" stroke="#1B1919" stroke-width="5.33" stroke-miterlimit="10"/>
</svg>
