<svg width="259" height="258" viewBox="0 0 259 258" fill="none" xmlns="http://www.w3.org/2000/svg">
<path d="M100.94 82.16C96.1661 82.16 91.5877 84.0565 88.2121 87.4321C84.8364 90.8078 82.94 95.3861 82.94 100.16V178.16H110.79V82.16H100.94Z" stroke="#1B1919" stroke-width="5.9" stroke-miterlimit="10"/>
<path d="M144.2 100.85L134.92 80.24C133.888 80.2471 132.868 80.4613 131.92 80.87L129.46 81.93C128.613 82.2963 127.84 82.8149 127.18 83.46L136.51 104.16C137.81 107.16 136.33 110.88 134.09 113.03L159.62 172.35C160.433 174.219 161.953 175.689 163.848 176.439C165.743 177.189 167.859 177.157 169.73 176.35L173.53 174.71C174.456 174.31 175.294 173.731 175.996 173.006C176.698 172.282 177.251 171.427 177.622 170.489C177.994 169.551 178.177 168.549 178.161 167.54C178.145 166.531 177.931 165.536 177.53 164.61L152 105.21C149 105.23 145.46 103.78 144.2 100.85Z" stroke="#1B1919" stroke-width="5.9" stroke-miterlimit="10"/>
<path d="M130.19 176.48C135.879 176.48 140.49 171.869 140.49 166.18C140.49 160.491 135.879 155.88 130.19 155.88C124.501 155.88 119.89 160.491 119.89 166.18C119.89 171.869 124.501 176.48 130.19 176.48Z" stroke="#1B1919" stroke-width="5.9" stroke-miterlimit="10"/>
<path d="M82.97 106.99H110.82V129.71H82.97V152.07H110.82" stroke="#1B1919" stroke-width="5.9" stroke-miterlimit="10"/>
<path d="M96.9 84.16V177" stroke="#1B1919" stroke-width="5.9" stroke-miterlimit="10"/>
</svg>
