<svg width="259" height="258" viewBox="0 0 259 258" fill="none" xmlns="http://www.w3.org/2000/svg">
<path d="M175.62 128.76C175.494 141.239 170.433 153.161 161.542 161.918C152.651 170.676 140.654 175.557 128.175 175.494C115.695 175.432 103.748 170.43 94.946 161.583C86.1437 152.737 81.2024 140.765 81.2024 128.285C81.2024 115.805 86.1437 103.833 94.946 94.9865C103.748 86.1398 115.695 81.1383 128.175 81.0755C140.654 81.0128 152.651 85.8938 161.542 94.6515C170.433 103.409 175.494 115.331 175.62 127.81C175.62 128.12 175.62 128.45 175.62 128.76Z" stroke="#1B1919" stroke-width="5.33" stroke-miterlimit="10"/>
<path d="M118.62 174.85C109.398 172.884 100.978 168.197 94.4497 161.394C87.9211 154.591 83.5842 145.985 82 136.69C84.2184 135.672 86.4997 134.797 88.83 134.07C108.75 127.83 128.2 133.07 132.83 145.88L133.04 146.5C136 156.1 129.94 167.11 118.62 174.85Z" stroke="#1B1919" stroke-width="5.33" stroke-miterlimit="10"/>
<path d="M168.53 103.9C173.008 111.084 175.454 119.347 175.61 127.81C169.19 128.28 163.46 126.62 159.44 122.61C159.16 122.33 158.91 122.05 158.66 121.77C152.66 114.83 152.83 103.45 158.32 92.28" stroke="#1B1919" stroke-width="5.33" stroke-miterlimit="10"/>
<path d="M151.78 169.74C154.093 157.612 152.992 145.079 148.6 133.54C144.554 122.974 137.881 113.614 129.211 106.346C120.541 99.077 110.16 94.1396 99.05 92" stroke="#1B1919" stroke-width="5.33" stroke-miterlimit="10"/>
<path d="M92.14 158.77C113.379 157.413 133.421 148.457 148.6 133.54C152.287 129.914 155.653 125.976 158.66 121.77C162.63 116.215 165.942 110.218 168.53 103.9" stroke="#1B1919" stroke-width="5.33" stroke-miterlimit="10"/>
<path d="M99.05 92C107.47 85.2561 117.95 81.6065 128.738 81.6611C139.526 81.7157 149.968 85.4712 158.32 92.3" stroke="#1B1919" stroke-width="5.33" stroke-miterlimit="10"/>
</svg>
