<svg width="259" height="258" viewBox="0 0 259 258" fill="none" xmlns="http://www.w3.org/2000/svg">
<path d="M80.18 178.48H181.3" stroke="#1B1919" stroke-width="5.5" stroke-miterlimit="10"/>
<path d="M79.79 166.8H180.92" stroke="#1B1919" stroke-width="5.5" stroke-miterlimit="10"/>
<path d="M130.74 104.04C134.75 104.04 138 100.79 138 96.78C138 92.7704 134.75 89.52 130.74 89.52C126.73 89.52 123.48 92.7704 123.48 96.78C123.48 100.79 126.73 104.04 130.74 104.04Z" stroke="#1B1919" stroke-width="5.5" stroke-miterlimit="10"/>
<path d="M108 136.72H155.38C156.428 136.72 157.432 137.136 158.173 137.877C158.914 138.618 159.33 139.622 159.33 140.67V140.67C159.33 144.5 157.809 148.173 155.101 150.881C152.393 153.589 148.72 155.11 144.89 155.11H118.54C114.71 155.11 111.037 153.589 108.329 150.881C105.621 148.173 104.1 144.5 104.1 140.67C104.1 139.622 104.516 138.618 105.257 137.877C105.998 137.136 107.002 136.72 108.05 136.72H108Z" stroke="#1B1919" stroke-width="5.22" stroke-miterlimit="10"/>
<path d="M104.43 124.41C104.43 124.41 131.43 136.94 128.75 110.12" stroke="#1B1919" stroke-width="5.5" stroke-miterlimit="10"/>
<path d="M157.63 122.89C157.63 122.89 131.63 137.27 132.38 110.34" stroke="#1B1919" stroke-width="5.5" stroke-miterlimit="10"/>
</svg>
